<svg xmlns="http://www.w3.org/2000/svg" width="288.2791442871094" height="283.67059326171875" viewBox="-51.346073150634766 -40.8658447265625 288.2791442871094 283.67059326171875"><title>Neo4j Graph Visualization</title><desc>Created using Neo4j (http://www.neo4j.com/)</desc><g class="layer relationships"><g class="relationship" transform="translate(152.05027178851577 206.57037994675986) rotate(238.92383943711786)"><path class="outline" fill="#A5ABB6" stroke="none" d="M 25 0.5 L 32.75561503977453 0.5 L 32.75561503977453 -0.5 L 25 -0.5 Z M 77.75561503977454 0.5 L 85.51123007954907 0.5 L 85.51123007954907 3.5 L 92.51123007954907 0 L 85.51123007954907 -3.5 L 85.51123007954907 -0.5 L 77.75561503977454 -0.5 Z"/><text text-anchor="middle" pointer-events="none" font-size="8px" fill="#000000" x="55.25561503977453" y="3" transform="rotate(180 55.25561503977453 0)" font-family="sans-serif">ACTED_IN</text></g><g class="relationship" transform="translate(207.93308507439258 121.14395557145546) rotate(187.44060629434375)"><path class="outline" fill="#A5ABB6" stroke="none" d="M 25 0.5 L 32.764523201282195 0.5 L 32.764523201282195 -0.5 L 25 -0.5 Z M 77.7645232012822 0.5 L 85.52904640256439 0.5 L 85.52904640256439 3.5 L 92.52904640256439 0 L 85.52904640256439 -3.5 L 85.52904640256439 -0.5 L 77.7645232012822 -0.5 Z"/><text text-anchor="middle" pointer-events="none" font-size="8px" fill="#000000" x="55.264523201282195" y="3" transform="rotate(180 55.264523201282195 0)" font-family="sans-serif">ACTED_IN</text></g><g class="relationship" transform="translate(181.1418013392825 30.63142964962811) rotate(500.0055874481137)"><path class="outline" fill="#A5ABB6" stroke="none" d="M 25 0.5 L 32.57413560183479 0.5 L 32.57413560183479 -0.5 L 25 -0.5 Z M 77.5741356018348 0.5 L 85.14827120366958 0.5 L 85.14827120366958 3.5 L 92.14827120366958 0 L 85.14827120366958 -3.5 L 85.14827120366958 -0.5 L 77.5741356018348 -0.5 Z"/><text text-anchor="middle" pointer-events="none" font-size="8px" fill="#000000" x="55.07413560183479" y="3" transform="rotate(180 55.07413560183479 0)" font-family="sans-serif">ACTED_IN</text></g><g class="relationship" transform="translate(96.9699490068543 -11.865846513733386) rotate(452.7104048309734)"><path class="outline" fill="#A5ABB6" stroke="none" d="M 25 0.5 L 31.96095016097381 0.5 L 31.96095016097381 -0.5 L 25 -0.5 Z M 78.96095016097381 0.5 L 85.92190032194762 0.5 L 85.92190032194762 3.5 L 92.92190032194762 0 L 85.92190032194762 -3.5 L 85.92190032194762 -0.5 L 78.96095016097381 -0.5 Z"/><text text-anchor="middle" pointer-events="none" font-size="8px" fill="#000000" x="55.46095016097381" y="3" transform="rotate(180 55.46095016097381 0)" font-family="sans-serif">DIRECTED</text></g><g class="relationship" transform="translate(1.53992454528736 30.706923716710506) rotate(399.93293945706847)"><path class="outline" fill="#A5ABB6" stroke="none" d="M 25 0.5 L 37.59036946183101 0.5 L 37.59036946183101 -0.5 L 25 -0.5 Z M 72.59036946183102 0.5 L 85.18073892366202 0.5 L 85.18073892366202 3.5 L 92.18073892366202 0 L 85.18073892366202 -3.5 L 85.18073892366202 -0.5 L 72.59036946183102 -0.5 Z"/><text text-anchor="middle" pointer-events="none" font-size="8px" fill="#000000" x="55.09036946183101" y="3" font-family="sans-serif">WROTE</text></g><g class="relationship" transform="translate(-22.34607285177666 133.50218003377796) rotate(346.370734500008)"><path class="outline" fill="#A5ABB6" stroke="none" d="M 25 0.5 L 37.51768768541407 0.5 L 37.51768768541407 -0.5 L 25 -0.5 Z M 72.51768768541407 0.5 L 85.03537537082813 0.5 L 85.03537537082813 3.5 L 92.03537537082813 0 L 85.03537537082813 -3.5 L 85.03537537082813 -0.5 L 72.51768768541407 -0.5 Z"/><text text-anchor="middle" pointer-events="none" font-size="8px" fill="#000000" x="55.01768768541407" y="3" font-family="sans-serif">WROTE</text></g><g class="relationship" transform="translate(47.347936291476614 213.80473072775175) rotate(292.2093255204589)"><path class="outline" fill="#A5ABB6" stroke="none" d="M 25 0.5 L 37.262874394006836 0.5 L 37.262874394006836 -0.5 L 25 -0.5 Z M 72.26287439400684 0.5 L 84.52574878801367 0.5 L 84.52574878801367 3.5 L 91.52574878801367 0 L 84.52574878801367 -3.5 L 84.52574878801367 -0.5 L 72.26287439400684 -0.5 Z"/><text text-anchor="middle" pointer-events="none" font-size="8px" fill="#000000" x="54.762874394006836" y="3" font-family="sans-serif">WROTE</text></g></g><g class="layer nodes"><g class="node" transform="translate(91.3936762390514,105.92413505328449)"><circle class="outline" cx="0" cy="0" r="25" fill="#57C7E3" stroke="#23b3d7" stroke-width="2px"/><text text-anchor="middle" pointer-events="none" font-family="sans-serif" dy="1.5625" font-size="25" fill="#2A2C34"/><text text-anchor="middle" pointer-events="none" font-family="sans-serif" dy="1.5625" font-size="25" fill="#2A2C34"/><text text-anchor="middle" pointer-events="none" x="0" y="0" font-size="10px" fill="#2A2C34" font-family="sans-serif"> Captain</text><text text-anchor="middle" pointer-events="none" x="0" y="10" font-size="10px" fill="#2A2C34" font-family="sans-serif"> America:</text></g><g class="node" transform="translate(152.05027178851577,206.57037994675986)"><circle class="outline" cx="0" cy="0" r="25" fill="#F79767" stroke="#f36924" stroke-width="2px"/><text text-anchor="middle" pointer-events="none" font-family="sans-serif" dy="1.5625" font-size="25" fill="#FFFFFF"/><text text-anchor="middle" pointer-events="none" font-family="sans-serif" dy="1.5625" font-size="25" fill="#FFFFFF"/><text text-anchor="middle" pointer-events="none" x="0" y="0" font-size="10px" fill="#FFFFFF" font-family="sans-serif"> Chris</text><text text-anchor="middle" pointer-events="none" x="0" y="10" font-size="10px" fill="#FFFFFF" font-family="sans-serif"> Evans</text></g><g class="node" transform="translate(207.93308507439258,121.14395557145546)"><circle class="outline" cx="0" cy="0" r="25" fill="#F79767" stroke="#f36924" stroke-width="2px"/><text text-anchor="middle" pointer-events="none" font-family="sans-serif" dy="1.5625" font-size="25" fill="#FFFFFF"/><text text-anchor="middle" pointer-events="none" font-family="sans-serif" dy="1.5625" font-size="25" fill="#FFFFFF"/><text text-anchor="middle" pointer-events="none" x="0" y="0" font-size="10px" fill="#FFFFFF" font-family="sans-serif"> Hugo</text><text text-anchor="middle" pointer-events="none" x="0" y="10" font-size="10px" fill="#FFFFFF" font-family="sans-serif"> Weaving</text></g><g class="node" transform="translate(181.1418013392825,30.63142964962811)"><circle class="outline" cx="0" cy="0" r="25" fill="#F79767" stroke="#f36924" stroke-width="2px"/><text text-anchor="middle" pointer-events="none" font-family="sans-serif" dy="1.5625" font-size="25" fill="#FFFFFF"/><text text-anchor="middle" pointer-events="none" font-family="sans-serif" dy="1.5625" font-size="25" fill="#FFFFFF"/><text text-anchor="middle" pointer-events="none" x="0" y="0" font-size="10px" fill="#FFFFFF" font-family="sans-serif"> Samuel</text><text text-anchor="middle" pointer-events="none" x="0" y="10" font-size="10px" fill="#FFFFFF" font-family="sans-serif"> L. Jack…</text></g><g class="node" transform="translate(96.9699490068543,-11.865846513733386)"><circle class="outline" cx="0" cy="0" r="25" fill="#F79767" stroke="#f36924" stroke-width="2px"/><text text-anchor="middle" pointer-events="none" font-family="sans-serif" dy="1.5625" font-size="25" fill="#FFFFFF"/><text text-anchor="middle" pointer-events="none" font-family="sans-serif" dy="1.5625" font-size="25" fill="#FFFFFF"/><text text-anchor="middle" pointer-events="none" x="0" y="0" font-size="10px" fill="#FFFFFF" font-family="sans-serif"> Joe</text><text text-anchor="middle" pointer-events="none" x="0" y="10" font-size="10px" fill="#FFFFFF" font-family="sans-serif"> Johnston</text></g><g class="node" transform="translate(1.53992454528736,30.706923716710506)"><circle class="outline" cx="0" cy="0" r="25" fill="#F79767" stroke="#f36924" stroke-width="2px"/><text text-anchor="middle" pointer-events="none" font-family="sans-serif" dy="1.5625" font-size="25" fill="#FFFFFF"/><text text-anchor="middle" pointer-events="none" x="0" y="5" font-size="10px" fill="#FFFFFF" font-family="sans-serif"> Christop…</text></g><g class="node" transform="translate(-22.34607285177666,133.50218003377796)"><circle class="outline" cx="0" cy="0" r="25" fill="#F79767" stroke="#f36924" stroke-width="2px"/><text text-anchor="middle" pointer-events="none" font-family="sans-serif" dy="1.5625" font-size="25" fill="#FFFFFF"/><text text-anchor="middle" pointer-events="none" font-family="sans-serif" dy="1.5625" font-size="25" fill="#FFFFFF"/><text text-anchor="middle" pointer-events="none" x="0" y="0" font-size="10px" fill="#FFFFFF" font-family="sans-serif"> Stephen</text><text text-anchor="middle" pointer-events="none" x="0" y="10" font-size="10px" fill="#FFFFFF" font-family="sans-serif"> McFeely</text></g><g class="node" transform="translate(47.347936291476614,213.80473072775175)"><circle class="outline" cx="0" cy="0" r="25" fill="#F79767" stroke="#f36924" stroke-width="2px"/><text text-anchor="middle" pointer-events="none" font-family="sans-serif" dy="1.5625" font-size="25" fill="#FFFFFF"/><text text-anchor="middle" pointer-events="none" font-family="sans-serif" dy="1.5625" font-size="25" fill="#FFFFFF"/><text text-anchor="middle" pointer-events="none" x="0" y="0" font-size="10px" fill="#FFFFFF" font-family="sans-serif"> Joe</text><text text-anchor="middle" pointer-events="none" x="0" y="10" font-size="10px" fill="#FFFFFF" font-family="sans-serif"> Simon</text></g></g></svg>