<svg xmlns="http://www.w3.org/2000/svg" width="991.1759033203125" height="704.0433349609375" viewBox="-317.0253601074219 -248.2176971435547 991.1759033203125 704.0433349609375"><title>Neo4j Graph Visualization</title><desc>Created using Neo4j (http://www.neo4j.com/)</desc><g class="layer relationships"><g class="relationship" transform="translate(-89.43204883354963 238.16593772358942) rotate(197.66955431964573)"><path class="outline" fill="#A5ABB6" stroke="none" d="M 25 0.5 L 82.58337512070081 0.5 L 82.58337512070081 -0.5 L 25 -0.5 Z M 116.58337512070081 0.5 L 174.16675024140162 0.5 L 174.16675024140162 3.5 L 181.16675024140162 0 L 174.16675024140162 -3.5 L 174.16675024140162 -0.5 L 116.58337512070081 -0.5 Z"/><text text-anchor="middle" pointer-events="none" font-size="8px" fill="#000000" x="99.58337512070081" y="3" transform="rotate(180 99.58337512070081 0)" font-family="sans-serif">ORIGIN</text></g><g class="relationship" transform="translate(-89.43204883354963 238.16593772358942) rotate(366.9934787109196)"><path class="outline" fill="#A5ABB6" stroke="none" d="M 25 0.5 L 80.15617635255383 0.5 L 80.15617635255383 -0.5 L 25 -0.5 Z M 138.1561763525538 0.5 L 193.31235270510766 0.5 L 193.31235270510766 3.5 L 200.31235270510766 0 L 193.31235270510766 -3.5 L 193.31235270510766 -0.5 L 138.1561763525538 -0.5 Z"/><text text-anchor="middle" pointer-events="none" font-size="8px" fill="#000000" x="109.15617635255383" y="3" font-family="sans-serif">DESTINATION</text></g><g class="relationship" transform="translate(174.20097195706938 426.8256292771082) rotate(256.0673654952867)"><path class="outline" fill="#A5ABB6" stroke="none" d="M 25 0.5 L 62.55681167571839 0.5 L 62.55681167571839 -0.5 L 25 -0.5 Z M 96.5568116757184 0.5 L 134.1136233514368 0.5 L 134.1136233514368 3.5 L 141.1136233514368 0 L 134.1136233514368 -3.5 L 134.1136233514368 -0.5 L 96.5568116757184 -0.5 Z"/><text text-anchor="middle" pointer-events="none" font-size="8px" fill="#000000" x="79.5568116757184" y="3" transform="rotate(180 79.5568116757184 0)" font-family="sans-serif">ORIGIN</text></g><g class="relationship" transform="translate(174.20097195706938 426.8256292771082) rotate(306.19778225906254)"><path class="outline" fill="#A5ABB6" stroke="none" d="M 25 0.5 L 25.90468256024429 0.5 L 25.90468256024429 -0.5 L 25 -0.5 Z M 55.90468256024429 0.5 L 56.80936512048858 0.5 L 56.80936512048858 3.5 L 63.80936512048858 0 L 56.80936512048858 -3.5 L 56.80936512048858 -0.5 L 55.90468256024429 -0.5 Z"/><text text-anchor="middle" pointer-events="none" font-size="8px" fill="#000000" x="40.90468256024429" y="3" font-family="sans-serif">DES…</text></g><g class="relationship" transform="translate(363.4873164127244 231.2487569325391) rotate(497.8385666559069)"><path class="outline" fill="#A5ABB6" stroke="none" d="M 25 0.5 L 59.801241514563785 0.5 L 59.801241514563785 -0.5 L 25 -0.5 Z M 117.80124151456378 0.5 L 152.60248302912757 0.5 L 152.60248302912757 3.5 L 159.60248302912757 0 L 152.60248302912757 -3.5 L 152.60248302912757 -0.5 L 117.80124151456378 -0.5 Z"/><text text-anchor="middle" pointer-events="none" font-size="8px" fill="#000000" x="88.80124151456378" y="3" transform="rotate(180 88.80124151456378 0)" font-family="sans-serif">DESTINATION</text></g><g class="relationship" transform="translate(363.4873164127244 231.2487569325391) rotate(293.90137074127176)"><path class="outline" fill="#A5ABB6" stroke="none" d="M 25 0.5 L 71.19464938281315 0.5 L 71.19464938281315 -0.5 L 25 -0.5 Z M 105.19464938281315 0.5 L 151.3892987656263 0.5 L 151.3892987656263 3.5 L 158.3892987656263 0 L 151.3892987656263 -3.5 L 151.3892987656263 -0.5 L 105.19464938281315 -0.5 Z"/><text text-anchor="middle" pointer-events="none" font-size="8px" fill="#000000" x="88.19464938281315" y="3" font-family="sans-serif">ORIGIN</text></g><g class="relationship" transform="translate(552.1912937033136 72.64782267218247) rotate(184.5289178401606)"><path class="outline" fill="#A5ABB6" stroke="none" d="M 25 0.5 L 36.87982965547255 0.5 L 36.87982965547255 -0.5 L 25 -0.5 Z M 70.87982965547255 0.5 L 82.7596593109451 0.5 L 82.7596593109451 3.5 L 89.7596593109451 0 L 82.7596593109451 -3.5 L 82.7596593109451 -0.5 L 70.87982965547255 -0.5 Z"/><text text-anchor="middle" pointer-events="none" font-size="8px" fill="#000000" x="53.87982965547255" y="3" transform="rotate(180 53.87982965547255 0)" font-family="sans-serif">ORIGIN</text></g><g class="relationship" transform="translate(552.1912937033136 72.64782267218247) rotate(391.06974347845187)"><path class="outline" fill="#A5ABB6" stroke="none" d="M 25 0.5 L 26.76442002204334 0.5 L 26.76442002204334 -0.5 L 25 -0.5 Z M 74.76442002204334 0.5 L 76.52884004408668 0.5 L 76.52884004408668 3.5 L 83.52884004408668 0 L 76.52884004408668 -3.5 L 76.52884004408668 -0.5 L 74.76442002204334 -0.5 Z"/><text text-anchor="middle" pointer-events="none" font-size="8px" fill="#000000" x="50.76442002204334" y="3" font-family="sans-serif">DESTINA…</text></g><g class="relationship" transform="translate(528.1295810656138 190.05245977615184) rotate(234.46036077975776)"><path class="outline" fill="#A5ABB6" stroke="none" d="M 25 0.5 L 57.20935696684005 0.5 L 57.20935696684005 -0.5 L 25 -0.5 Z M 91.20935696684005 0.5 L 123.4187139336801 0.5 L 123.4187139336801 3.5 L 130.4187139336801 0 L 123.4187139336801 -3.5 L 123.4187139336801 -0.5 L 91.20935696684005 -0.5 Z"/><text text-anchor="middle" pointer-events="none" font-size="8px" fill="#000000" x="74.20935696684005" y="3" transform="rotate(180 74.20935696684005 0)" font-family="sans-serif">ORIGIN</text></g><g class="relationship" transform="translate(528.1295810656138 190.05245977615184) rotate(332.3162881916428)"><path class="outline" fill="#A5ABB6" stroke="none" d="M 25 0.5 L 33.574294400623344 0.5 L 33.574294400623344 -0.5 L 25 -0.5 Z M 91.57429440062334 0.5 L 100.14858880124669 0.5 L 100.14858880124669 3.5 L 107.14858880124669 0 L 100.14858880124669 -3.5 L 100.14858880124669 -0.5 L 91.57429440062334 -0.5 Z"/><text text-anchor="middle" pointer-events="none" font-size="8px" fill="#000000" x="62.574294400623344" y="3" font-family="sans-serif">DESTINATION</text></g><g class="relationship" transform="translate(537.9498987356394 130.9547292216011) rotate(213.925175116964)"><path class="outline" fill="#A5ABB6" stroke="none" d="M 25 0.5 L 39.85424581870502 0.5 L 39.85424581870502 -0.5 L 25 -0.5 Z M 73.85424581870501 0.5 L 88.70849163741003 0.5 L 88.70849163741003 3.5 L 95.70849163741003 0 L 88.70849163741003 -3.5 L 88.70849163741003 -0.5 L 73.85424581870501 -0.5 Z"/><text text-anchor="middle" pointer-events="none" font-size="8px" fill="#000000" x="56.85424581870502" y="3" transform="rotate(180 56.85424581870502 0)" font-family="sans-serif">ORIGIN</text></g><g class="relationship" transform="translate(537.9498987356394 130.9547292216011) rotate(358.7723846870049)"><path class="outline" fill="#A5ABB6" stroke="none" d="M 25 0.5 L 26.112634892911714 0.5 L 26.112634892911714 -0.5 L 25 -0.5 Z M 74.11263489291171 0.5 L 75.22526978582343 0.5 L 75.22526978582343 3.5 L 82.22526978582343 0 L 75.22526978582343 -3.5 L 75.22526978582343 -0.5 L 74.11263489291171 -0.5 Z"/><text text-anchor="middle" pointer-events="none" font-size="8px" fill="#000000" x="50.112634892911714" y="3" font-family="sans-serif">DESTINA…</text></g><g class="relationship" transform="translate(597.9571543882105 33.885638583893865) rotate(529.4947193290834)"><path class="outline" fill="#A5ABB6" stroke="none" d="M 25 0.5 L 60.94883424404533 0.5 L 60.94883424404533 -0.5 L 25 -0.5 Z M 94.94883424404533 0.5 L 130.89766848809066 0.5 L 130.89766848809066 3.5 L 137.89766848809066 0 L 130.89766848809066 -3.5 L 130.89766848809066 -0.5 L 94.94883424404533 -0.5 Z"/><text text-anchor="middle" pointer-events="none" font-size="8px" fill="#000000" x="77.94883424404533" y="3" transform="rotate(180 77.94883424404533 0)" font-family="sans-serif">ORIGIN</text></g><g class="relationship" transform="translate(597.9571543882105 33.885638583893865) rotate(423.52814183423084)"><path class="outline" fill="#A5ABB6" stroke="none" d="M 25 0.5 L 25.436102432886436 0.5 L 25.436102432886436 -0.5 L 25 -0.5 Z M 73.43610243288643 0.5 L 73.87220486577287 0.5 L 73.87220486577287 3.5 L 80.87220486577287 0 L 73.87220486577287 -3.5 L 73.87220486577287 -0.5 L 73.43610243288643 -0.5 Z"/><text text-anchor="middle" pointer-events="none" font-size="8px" fill="#000000" x="49.436102432886436" y="3" font-family="sans-serif">DESTINA…</text></g><g class="relationship" transform="translate(545.7759201878957 4.546517808023918) rotate(511.33306106926665)"><path class="outline" fill="#A5ABB6" stroke="none" d="M 25 0.5 L 41.035853591083345 0.5 L 41.035853591083345 -0.5 L 25 -0.5 Z M 75.03585359108334 0.5 L 91.07170718216669 0.5 L 91.07170718216669 3.5 L 98.07170718216669 0 L 91.07170718216669 -3.5 L 91.07170718216669 -0.5 L 75.03585359108334 -0.5 Z"/><text text-anchor="middle" pointer-events="none" font-size="8px" fill="#000000" x="58.035853591083345" y="3" transform="rotate(180 58.035853591083345 0)" font-family="sans-serif">ORIGIN</text></g><g class="relationship" transform="translate(545.7759201878957 4.546517808023918) rotate(411.31603412812467)"><path class="outline" fill="#A5ABB6" stroke="none" d="M 25 0.5 L 46.99662795089293 0.5 L 46.99662795089293 -0.5 L 25 -0.5 Z M 104.99662795089293 0.5 L 126.99325590178586 0.5 L 126.99325590178586 3.5 L 133.99325590178586 0 L 126.99325590178586 -3.5 L 126.99325590178586 -0.5 L 104.99662795089293 -0.5 Z"/><text text-anchor="middle" pointer-events="none" font-size="8px" fill="#000000" x="75.99662795089293" y="3" font-family="sans-serif">DESTINATION</text></g><g class="relationship" transform="translate(-246.56992508420544 342.8340741508609) rotate(256.77548552323555)"><path class="outline" fill="#A5ABB6" stroke="none" d="M 25 0.5 L 65.40062373554494 0.5 L 65.40062373554494 -0.5 L 25 -0.5 Z M 99.40062373554494 0.5 L 139.80124747108988 0.5 L 139.80124747108988 3.5 L 146.80124747108988 0 L 139.80124747108988 -3.5 L 139.80124747108988 -0.5 L 99.40062373554494 -0.5 Z"/><text text-anchor="middle" pointer-events="none" font-size="8px" fill="#000000" x="82.40062373554494" y="3" transform="rotate(180 82.40062373554494 0)" font-family="sans-serif">ORIGIN</text></g><g class="relationship" transform="translate(-246.56992508420544 342.8340741508609) rotate(353.8186132194429)"><path class="outline" fill="#A5ABB6" stroke="none" d="M 25 0.5 L 54.719914463485594 0.5 L 54.719914463485594 -0.5 L 25 -0.5 Z M 112.7199144634856 0.5 L 142.4398289269712 0.5 L 142.4398289269712 3.5 L 149.4398289269712 0 L 142.4398289269712 -3.5 L 142.4398289269712 -0.5 L 112.7199144634856 -0.5 Z"/><text text-anchor="middle" pointer-events="none" font-size="8px" fill="#000000" x="83.7199144634856" y="3" font-family="sans-serif">DESTINATION</text></g><g class="relationship" transform="translate(67.40982631122809 408.10265344830196) rotate(210.87950430533283)"><path class="outline" fill="#A5ABB6" stroke="none" d="M 25 0.5 L 61.38427216076859 0.5 L 61.38427216076859 -0.5 L 25 -0.5 Z M 95.38427216076859 0.5 L 131.76854432153718 0.5 L 131.76854432153718 3.5 L 138.76854432153718 0 L 131.76854432153718 -3.5 L 131.76854432153718 -0.5 L 95.38427216076859 -0.5 Z"/><text text-anchor="middle" pointer-events="none" font-size="8px" fill="#000000" x="78.38427216076859" y="3" transform="rotate(180 78.38427216076859 0)" font-family="sans-serif">ORIGIN</text></g><g class="relationship" transform="translate(67.40982631122809 408.10265344830196) rotate(341.60884640340396)"><path class="outline" fill="#A5ABB6" stroke="none" d="M 25 0.5 L 51.40532987423286 0.5 L 51.40532987423286 -0.5 L 25 -0.5 Z M 109.40532987423286 0.5 L 135.81065974846572 0.5 L 135.81065974846572 3.5 L 142.81065974846572 0 L 135.81065974846572 -3.5 L 135.81065974846572 -0.5 L 109.40532987423286 -0.5 Z"/><text text-anchor="middle" pointer-events="none" font-size="8px" fill="#000000" x="80.40532987423286" y="3" font-family="sans-serif">DESTINATION</text></g><g class="relationship" transform="translate(-243.15116463559465 283.03063987319376) rotate(248.31612084969828)"><path class="outline" fill="#A5ABB6" stroke="none" d="M 25 0.5 L 37.3118849987531 0.5 L 37.3118849987531 -0.5 L 25 -0.5 Z M 71.3118849987531 0.5 L 83.6237699975062 0.5 L 83.6237699975062 3.5 L 90.6237699975062 0 L 83.6237699975062 -3.5 L 83.6237699975062 -0.5 L 71.3118849987531 -0.5 Z"/><text text-anchor="middle" pointer-events="none" font-size="8px" fill="#000000" x="54.3118849987531" y="3" transform="rotate(180 54.3118849987531 0)" font-family="sans-serif">ORIGIN</text></g><g class="relationship" transform="translate(-243.15116463559465 283.03063987319376) rotate(373.56541570493613)"><path class="outline" fill="#A5ABB6" stroke="none" d="M 25 0.5 L 54.94285177476657 0.5 L 54.94285177476657 -0.5 L 25 -0.5 Z M 112.94285177476657 0.5 L 142.88570354953313 0.5 L 142.88570354953313 3.5 L 149.88570354953313 0 L 142.88570354953313 -3.5 L 142.88570354953313 -0.5 L 112.94285177476657 -0.5 Z"/><text text-anchor="middle" pointer-events="none" font-size="8px" fill="#000000" x="83.94285177476657" y="3" font-family="sans-serif">DESTINATION</text></g><g class="relationship" transform="translate(-193.0962552855266 315.9115664375013) rotate(236.52880406148125)"><path class="outline" fill="#A5ABB6" stroke="none" d="M 25 0.5 L 63.609898073970015 0.5 L 63.609898073970015 -0.5 L 25 -0.5 Z M 97.60989807397002 0.5 L 136.21979614794003 0.5 L 136.21979614794003 3.5 L 143.21979614794003 0 L 136.21979614794003 -3.5 L 136.21979614794003 -0.5 L 97.60989807397002 -0.5 Z"/><text text-anchor="middle" pointer-events="none" font-size="8px" fill="#000000" x="80.60989807397002" y="3" transform="rotate(180 80.60989807397002 0)" font-family="sans-serif">ORIGIN</text></g><g class="relationship" transform="translate(-193.0962552855266 315.9115664375013) rotate(363.8819100049409)"><path class="outline" fill="#A5ABB6" stroke="none" d="M 25 0.5 L 27.6139017770671 0.5 L 27.6139017770671 -0.5 L 25 -0.5 Z M 85.6139017770671 0.5 L 88.2278035541342 0.5 L 88.2278035541342 3.5 L 95.2278035541342 0 L 88.2278035541342 -3.5 L 88.2278035541342 -0.5 L 85.6139017770671 -0.5 Z"/><text text-anchor="middle" pointer-events="none" font-size="8px" fill="#000000" x="56.6139017770671" y="3" font-family="sans-serif">DESTINATION</text></g><g class="relationship" transform="translate(-189.56776728080723 256.03459066225554) rotate(219.87287801930484)"><path class="outline" fill="#A5ABB6" stroke="none" d="M 25 0.5 L 42.24176529077149 0.5 L 42.24176529077149 -0.5 L 25 -0.5 Z M 76.2417652907715 0.5 L 93.48353058154298 0.5 L 93.48353058154298 3.5 L 100.48353058154298 0 L 93.48353058154298 -3.5 L 93.48353058154298 -0.5 L 76.2417652907715 -0.5 Z"/><text text-anchor="middle" pointer-events="none" font-size="8px" fill="#000000" x="59.24176529077149" y="3" transform="rotate(180 59.24176529077149 0)" font-family="sans-serif">ORIGIN</text></g><g class="relationship" transform="translate(-189.56776728080723 256.03459066225554) rotate(390.2941465990127)"><path class="outline" fill="#A5ABB6" stroke="none" d="M 25 0.5 L 34.91784110720643 0.5 L 34.91784110720643 -0.5 L 25 -0.5 Z M 92.91784110720643 0.5 L 102.83568221441286 0.5 L 102.83568221441286 3.5 L 109.83568221441286 0 L 102.83568221441286 -3.5 L 102.83568221441286 -0.5 L 92.91784110720643 -0.5 Z"/><text text-anchor="middle" pointer-events="none" font-size="8px" fill="#000000" x="63.91784110720643" y="3" font-family="sans-serif">DESTINATION</text></g><g class="relationship" transform="translate(209.96264837623153 111.91374610577931) rotate(476.24082571467557)"><path class="outline" fill="#A5ABB6" stroke="none" d="M 25 0.5 L 53.17172732879257 0.5 L 53.17172732879257 -0.5 L 25 -0.5 Z M 111.17172732879257 0.5 L 139.34345465758514 0.5 L 139.34345465758514 3.5 L 146.34345465758514 0 L 139.34345465758514 -3.5 L 139.34345465758514 -0.5 L 111.17172732879257 -0.5 Z"/><text text-anchor="middle" pointer-events="none" font-size="8px" fill="#000000" x="82.17172732879257" y="3" transform="rotate(180 82.17172732879257 0)" font-family="sans-serif">DESTINATION</text></g><g class="relationship" transform="translate(209.96264837623153 111.91374610577931) rotate(250.34418666126044)"><path class="outline" fill="#A5ABB6" stroke="none" d="M 25 0.5 L 63.23754700045211 0.5 L 63.23754700045211 -0.5 L 25 -0.5 Z M 97.23754700045211 0.5 L 135.47509400090422 0.5 L 135.47509400090422 3.5 L 142.47509400090422 0 L 135.47509400090422 -3.5 L 135.47509400090422 -0.5 L 97.23754700045211 -0.5 Z"/><text text-anchor="middle" pointer-events="none" font-size="8px" fill="#000000" x="80.23754700045211" y="3" transform="rotate(180 80.23754700045211 0)" font-family="sans-serif">ORIGIN</text></g><g class="relationship" transform="translate(306.95929536298775 -20.673722947842066) rotate(189.30732359205285)"><path class="outline" fill="#A5ABB6" stroke="none" d="M 25 0.5 L 45.18780215264232 0.5 L 45.18780215264232 -0.5 L 25 -0.5 Z M 103.18780215264232 0.5 L 123.37560430528464 0.5 L 123.37560430528464 3.5 L 130.37560430528464 0 L 123.37560430528464 -3.5 L 123.37560430528464 -0.5 L 103.18780215264232 -0.5 Z"/><text text-anchor="middle" pointer-events="none" font-size="8px" fill="#000000" x="74.18780215264232" y="3" transform="rotate(180 74.18780215264232 0)" font-family="sans-serif">DESTINATION</text></g><g class="relationship" transform="translate(306.95929536298775 -20.673722947842066) rotate(392.7830576836042)"><path class="outline" fill="#A5ABB6" stroke="none" d="M 25 0.5 L 57.30807724483245 0.5 L 57.30807724483245 -0.5 L 25 -0.5 Z M 91.30807724483245 0.5 L 123.6161544896649 0.5 L 123.6161544896649 3.5 L 130.6161544896649 0 L 123.6161544896649 -3.5 L 123.6161544896649 -0.5 L 91.30807724483245 -0.5 Z"/><text text-anchor="middle" pointer-events="none" font-size="8px" fill="#000000" x="74.30807724483245" y="3" font-family="sans-serif">ORIGIN</text></g><g class="relationship" transform="translate(332.20645360812824 -74.93108465910137) rotate(530.7358357689627)"><path class="outline" fill="#A5ABB6" stroke="none" d="M 25 0.5 L 57.96864422035816 0.5 L 57.96864422035816 -0.5 L 25 -0.5 Z M 115.96864422035816 0.5 L 148.93728844071632 0.5 L 148.93728844071632 3.5 L 155.93728844071632 0 L 148.93728844071632 -3.5 L 148.93728844071632 -0.5 L 115.96864422035816 -0.5 Z"/><text text-anchor="middle" pointer-events="none" font-size="8px" fill="#000000" x="86.96864422035816" y="3" transform="rotate(180 86.96864422035816 0)" font-family="sans-serif">DESTINATION</text></g><g class="relationship" transform="translate(332.20645360812824 -74.93108465910137) rotate(412.6838656605545)"><path class="outline" fill="#A5ABB6" stroke="none" d="M 25 0.5 L 66.58458376623736 0.5 L 66.58458376623736 -0.5 L 25 -0.5 Z M 100.58458376623736 0.5 L 142.16916753247472 0.5 L 142.16916753247472 3.5 L 149.16916753247472 0 L 142.16916753247472 -3.5 L 142.16916753247472 -0.5 L 100.58458376623736 -0.5 Z"/><text text-anchor="middle" pointer-events="none" font-size="8px" fill="#000000" x="83.58458376623736" y="3" font-family="sans-serif">ORIGIN</text></g><g class="relationship" transform="translate(150.73437030713444 102.9853962447274) rotate(455.8044233312048)"><path class="outline" fill="#A5ABB6" stroke="none" d="M 25 0.5 L 49.225894667419226 0.5 L 49.225894667419226 -0.5 L 25 -0.5 Z M 107.22589466741923 0.5 L 131.45178933483845 0.5 L 131.45178933483845 3.5 L 138.45178933483845 0 L 131.45178933483845 -3.5 L 131.45178933483845 -0.5 L 107.22589466741923 -0.5 Z"/><text text-anchor="middle" pointer-events="none" font-size="8px" fill="#000000" x="78.22589466741923" y="3" transform="rotate(180 78.22589466741923 0)" font-family="sans-serif">DESTINATION</text></g><g class="relationship" transform="translate(150.73437030713444 102.9853962447274) rotate(271.11461105959347)"><path class="outline" fill="#A5ABB6" stroke="none" d="M 25 0.5 L 53.90808396318684 0.5 L 53.90808396318684 -0.5 L 25 -0.5 Z M 87.90808396318684 0.5 L 116.81616792637368 0.5 L 116.81616792637368 3.5 L 123.81616792637368 0 L 116.81616792637368 -3.5 L 116.81616792637368 -0.5 L 87.90808396318684 -0.5 Z"/><text text-anchor="middle" pointer-events="none" font-size="8px" fill="#000000" x="70.90808396318684" y="3" font-family="sans-serif">ORIGIN</text></g><g class="relationship" transform="translate(297.00685989062976 38.421964673820504) rotate(210.43132563098214)"><path class="outline" fill="#A5ABB6" stroke="none" d="M 25 0.5 L 50.64284708267503 0.5 L 50.64284708267503 -0.5 L 25 -0.5 Z M 108.64284708267503 0.5 L 134.28569416535007 0.5 L 134.28569416535007 3.5 L 141.28569416535007 0 L 134.28569416535007 -3.5 L 134.28569416535007 -0.5 L 108.64284708267503 -0.5 Z"/><text text-anchor="middle" pointer-events="none" font-size="8px" fill="#000000" x="79.64284708267503" y="3" transform="rotate(180 79.64284708267503 0)" font-family="sans-serif">DESTINATION</text></g><g class="relationship" transform="translate(297.00685989062976 38.421964673820504) rotate(370.13427070563375)"><path class="outline" fill="#A5ABB6" stroke="none" d="M 25 0.5 L 51.00719697602972 0.5 L 51.00719697602972 -0.5 L 25 -0.5 Z M 85.00719697602972 0.5 L 111.01439395205944 0.5 L 111.01439395205944 3.5 L 118.01439395205944 0 L 111.01439395205944 -3.5 L 111.01439395205944 -0.5 L 85.00719697602972 -0.5 Z"/><text text-anchor="middle" pointer-events="none" font-size="8px" fill="#000000" x="68.00719697602972" y="3" font-family="sans-serif">ORIGIN</text></g><g class="relationship" transform="translate(73.04471863906873 159.23936468324308) rotate(491.57323333341617)"><path class="outline" fill="#A5ABB6" stroke="none" d="M 25 0.5 L 77.65229126918902 0.5 L 77.65229126918902 -0.5 L 25 -0.5 Z M 135.65229126918902 0.5 L 188.30458253837804 0.5 L 188.30458253837804 3.5 L 195.30458253837804 0 L 188.30458253837804 -3.5 L 188.30458253837804 -0.5 L 135.65229126918902 -0.5 Z"/><text text-anchor="middle" pointer-events="none" font-size="8px" fill="#000000" x="106.65229126918902" y="3" transform="rotate(180 106.65229126918902 0)" font-family="sans-serif">DESTINATION</text></g><g class="relationship" transform="translate(73.04471863906873 159.23936468324308) rotate(291.45554968793704)"><path class="outline" fill="#A5ABB6" stroke="none" d="M 25 0.5 L 89.65451854030458 0.5 L 89.65451854030458 -0.5 L 25 -0.5 Z M 123.65451854030458 0.5 L 188.30903708060916 0.5 L 188.30903708060916 3.5 L 195.30903708060916 0 L 188.30903708060916 -3.5 L 188.30903708060916 -0.5 L 123.65451854030458 -0.5 Z"/><text text-anchor="middle" pointer-events="none" font-size="8px" fill="#000000" x="106.65451854030458" y="3" font-family="sans-serif">ORIGIN</text></g><g class="relationship" transform="translate(23.036739761705025 126.32950040530767) rotate(475.9404632137935)"><path class="outline" fill="#A5ABB6" stroke="none" d="M 25 0.5 L 77.43701735419333 0.5 L 77.43701735419333 -0.5 L 25 -0.5 Z M 135.43701735419333 0.5 L 187.87403470838666 0.5 L 187.87403470838666 3.5 L 194.87403470838666 0 L 187.87403470838666 -3.5 L 187.87403470838666 -0.5 L 135.43701735419333 -0.5 Z"/><text text-anchor="middle" pointer-events="none" font-size="8px" fill="#000000" x="106.43701735419333" y="3" transform="rotate(180 106.43701735419333 0)" font-family="sans-serif">DESTINATION</text></g><g class="relationship" transform="translate(23.036739761705025 126.32950040530767) rotate(307.1867093047142)"><path class="outline" fill="#A5ABB6" stroke="none" d="M 25 0.5 L 87.5322358939946 0.5 L 87.5322358939946 -0.5 L 25 -0.5 Z M 121.5322358939946 0.5 L 184.0644717879892 0.5 L 184.0644717879892 3.5 L 191.0644717879892 0 L 184.0644717879892 -3.5 L 184.0644717879892 -0.5 L 121.5322358939946 -0.5 Z"/><text text-anchor="middle" pointer-events="none" font-size="8px" fill="#000000" x="104.5322358939946" y="3" font-family="sans-serif">ORIGIN</text></g><g class="relationship" transform="translate(-203.99782135443888 -33.04567369261809) rotate(471.4265796421919)"><path class="outline" fill="#A5ABB6" stroke="none" d="M 25 0.5 L 91.56225998628321 0.5 L 91.56225998628321 -0.5 L 25 -0.5 Z M 125.56225998628321 0.5 L 192.12451997256642 0.5 L 192.12451997256642 3.5 L 199.12451997256642 0 L 192.12451997256642 -3.5 L 192.12451997256642 -0.5 L 125.56225998628321 -0.5 Z"/><text text-anchor="middle" pointer-events="none" font-size="8px" fill="#000000" x="108.56225998628321" y="3" transform="rotate(180 108.56225998628321 0)" font-family="sans-serif">ORIGIN</text></g><g class="relationship" transform="translate(-203.99782135443888 -33.04567369261809) rotate(310.4654931514983)"><path class="outline" fill="#A5ABB6" stroke="none" d="M 25 0.5 L 87.16189520744851 0.5 L 87.16189520744851 -0.5 L 25 -0.5 Z M 145.1618952074485 0.5 L 207.32379041489702 0.5 L 207.32379041489702 3.5 L 214.32379041489702 0 L 207.32379041489702 -3.5 L 207.32379041489702 -0.5 L 145.1618952074485 -0.5 Z"/><text text-anchor="middle" pointer-events="none" font-size="8px" fill="#000000" x="116.16189520744851" y="3" font-family="sans-serif">DESTINATION</text></g><g class="relationship" transform="translate(132.52059835300776 -189.1889877264923) rotate(188.14492338206583)"><path class="outline" fill="#A5ABB6" stroke="none" d="M 25 0.5 L 71.02304417179138 0.5 L 71.02304417179138 -0.5 L 25 -0.5 Z M 105.02304417179138 0.5 L 151.04608834358277 0.5 L 151.04608834358277 3.5 L 158.04608834358277 0 L 151.04608834358277 -3.5 L 151.04608834358277 -0.5 L 105.02304417179138 -0.5 Z"/><text text-anchor="middle" pointer-events="none" font-size="8px" fill="#000000" x="88.02304417179138" y="3" transform="rotate(180 88.02304417179138 0)" font-family="sans-serif">ORIGIN</text></g><g class="relationship" transform="translate(132.52059835300776 -189.1889877264923) rotate(441.6253633216171)"><path class="outline" fill="#A5ABB6" stroke="none" d="M 25 0.5 L 39.965898111135346 0.5 L 39.965898111135346 -0.5 L 25 -0.5 Z M 97.96589811113535 0.5 L 112.93179622227069 0.5 L 112.93179622227069 3.5 L 119.93179622227069 0 L 112.93179622227069 -3.5 L 112.93179622227069 -0.5 L 97.96589811113535 -0.5 Z"/><text text-anchor="middle" pointer-events="none" font-size="8px" fill="#000000" x="68.96589811113535" y="3" font-family="sans-serif">DESTINATION</text></g><g class="relationship" transform="translate(80.71388394960049 -219.21769772674818) rotate(538.1872274614828)"><path class="outline" fill="#A5ABB6" stroke="none" d="M 25 0.5 L 32.22887752641985 0.5 L 32.22887752641985 -0.5 L 25 -0.5 Z M 90.22887752641985 0.5 L 97.4577550528397 0.5 L 97.4577550528397 3.5 L 104.4577550528397 0 L 97.4577550528397 -3.5 L 97.4577550528397 -0.5 L 90.22887752641985 -0.5 Z"/><text text-anchor="middle" pointer-events="none" font-size="8px" fill="#000000" x="61.22887752641985" y="3" transform="rotate(180 61.22887752641985 0)" font-family="sans-serif">DESTINATION</text></g><g class="relationship" transform="translate(80.71388394960049 -219.21769772674818) rotate(427.1948535454587)"><path class="outline" fill="#A5ABB6" stroke="none" d="M 25 0.5 L 73.56039978974788 0.5 L 73.56039978974788 -0.5 L 25 -0.5 Z M 107.56039978974788 0.5 L 156.12079957949575 0.5 L 156.12079957949575 3.5 L 163.12079957949575 0 L 156.12079957949575 -3.5 L 156.12079957949575 -0.5 L 107.56039978974788 -0.5 Z"/><text text-anchor="middle" pointer-events="none" font-size="8px" fill="#000000" x="90.56039978974788" y="3" font-family="sans-serif">ORIGIN</text></g><g class="relationship" transform="translate(80.54482436976201 -159.30001238637183) rotate(203.3635025456981)"><path class="outline" fill="#A5ABB6" stroke="none" d="M 25 0.5 L 37.882822050843984 0.5 L 37.882822050843984 -0.5 L 25 -0.5 Z M 95.88282205084398 0.5 L 108.76564410168797 0.5 L 108.76564410168797 3.5 L 115.76564410168797 0 L 108.76564410168797 -3.5 L 108.76564410168797 -0.5 L 95.88282205084398 -0.5 Z"/><text text-anchor="middle" pointer-events="none" font-size="8px" fill="#000000" x="66.88282205084398" y="3" transform="rotate(180 66.88282205084398 0)" font-family="sans-serif">DESTINATION</text></g><g class="relationship" transform="translate(80.54482436976201 -159.30001238637183) rotate(417.2213004317696)"><path class="outline" fill="#A5ABB6" stroke="none" d="M 25 0.5 L 46.99627021780587 0.5 L 46.99627021780587 -0.5 L 25 -0.5 Z M 80.99627021780587 0.5 L 102.99254043561174 0.5 L 102.99254043561174 3.5 L 109.99254043561174 0 L 102.99254043561174 -3.5 L 102.99254043561174 -0.5 L 80.99627021780587 -0.5 Z"/><text text-anchor="middle" pointer-events="none" font-size="8px" fill="#000000" x="63.99627021780587" y="3" font-family="sans-serif">ORIGIN</text></g><g class="relationship" transform="translate(-215.3152724237598 86.87644242943885) rotate(488.49690595113526)"><path class="outline" fill="#A5ABB6" stroke="none" d="M 25 0.5 L 36.17494723401742 0.5 L 36.17494723401742 -0.5 L 25 -0.5 Z M 70.17494723401742 0.5 L 81.34989446803483 0.5 L 81.34989446803483 3.5 L 88.34989446803483 0 L 81.34989446803483 -3.5 L 81.34989446803483 -0.5 L 70.17494723401742 -0.5 Z"/><text text-anchor="middle" pointer-events="none" font-size="8px" fill="#000000" x="53.17494723401742" y="3" transform="rotate(180 53.17494723401742 0)" font-family="sans-serif">ORIGIN</text></g><g class="relationship" transform="translate(-215.3152724237598 86.87644242943885) rotate(370.1818469904145)"><path class="outline" fill="#A5ABB6" stroke="none" d="M 25 0.5 L 42.60489381552797 0.5 L 42.60489381552797 -0.5 L 25 -0.5 Z M 100.60489381552797 0.5 L 118.20978763105595 0.5 L 118.20978763105595 3.5 L 125.20978763105595 0 L 118.20978763105595 -3.5 L 118.20978763105595 -0.5 L 100.60489381552797 -0.5 Z"/><text text-anchor="middle" pointer-events="none" font-size="8px" fill="#000000" x="71.60489381552797" y="3" font-family="sans-serif">DESTINATION</text></g><g class="relationship" transform="translate(57.83608102195413 36.153149717055186) rotate(508.33805971724007)"><path class="outline" fill="#A5ABB6" stroke="none" d="M 25 0.5 L 41.10961723055853 0.5 L 41.10961723055853 -0.5 L 25 -0.5 Z M 99.10961723055853 0.5 L 115.21923446111705 0.5 L 115.21923446111705 3.5 L 122.21923446111705 0 L 115.21923446111705 -3.5 L 115.21923446111705 -0.5 L 99.10961723055853 -0.5 Z"/><text text-anchor="middle" pointer-events="none" font-size="8px" fill="#000000" x="70.10961723055853" y="3" transform="rotate(180 70.10961723055853 0)" font-family="sans-serif">DESTINATION</text></g><g class="relationship" transform="translate(57.83608102195413 36.153149717055186) rotate(319.45137240818076)"><path class="outline" fill="#A5ABB6" stroke="none" d="M 25 0.5 L 42.533858503074995 0.5 L 42.533858503074995 -0.5 L 25 -0.5 Z M 76.533858503075 0.5 L 94.06771700614999 0.5 L 94.06771700614999 3.5 L 101.06771700614999 0 L 94.06771700614999 -3.5 L 94.06771700614999 -0.5 L 76.533858503075 -0.5 Z"/><text text-anchor="middle" pointer-events="none" font-size="8px" fill="#000000" x="59.533858503074995" y="3" font-family="sans-serif">ORIGIN</text></g><g class="relationship" transform="translate(-189.84832290795038 142.88352954409748) rotate(521.1914472955765)"><path class="outline" fill="#A5ABB6" stroke="none" d="M 25 0.5 L 30.22047926603203 0.5 L 30.22047926603203 -0.5 L 25 -0.5 Z M 64.22047926603203 0.5 L 69.44095853206406 0.5 L 69.44095853206406 3.5 L 76.44095853206406 0 L 69.44095853206406 -3.5 L 69.44095853206406 -0.5 L 64.22047926603203 -0.5 Z"/><text text-anchor="middle" pointer-events="none" font-size="8px" fill="#000000" x="47.22047926603203" y="3" transform="rotate(180 47.22047926603203 0)" font-family="sans-serif">ORIGIN</text></g><g class="relationship" transform="translate(-189.84832290795038 142.88352954409748) rotate(346.46729987404365)"><path class="outline" fill="#A5ABB6" stroke="none" d="M 25 0.5 L 30.43596275529201 0.5 L 30.43596275529201 -0.5 L 25 -0.5 Z M 88.43596275529201 0.5 L 93.87192551058402 0.5 L 93.87192551058402 3.5 L 100.87192551058402 0 L 93.87192551058402 -3.5 L 93.87192551058402 -0.5 L 88.43596275529201 -0.5 Z"/><text text-anchor="middle" pointer-events="none" font-size="8px" fill="#000000" x="59.43596275529201" y="3" font-family="sans-serif">DESTINATION</text></g><g class="relationship" transform="translate(17.78704920844851 -8.4657403116981) rotate(484.9703879993834)"><path class="outline" fill="#A5ABB6" stroke="none" d="M 25 0.5 L 53.87637783573666 0.5 L 53.87637783573666 -0.5 L 25 -0.5 Z M 87.87637783573666 0.5 L 116.75275567147332 0.5 L 116.75275567147332 3.5 L 123.75275567147332 0 L 116.75275567147332 -3.5 L 116.75275567147332 -0.5 L 87.87637783573666 -0.5 Z"/><text text-anchor="middle" pointer-events="none" font-size="8px" fill="#000000" x="70.87637783573666" y="3" transform="rotate(180 70.87637783573666 0)" font-family="sans-serif">ORIGIN</text></g><g class="relationship" transform="translate(17.78704920844851 -8.4657403116981) rotate(344.6314815009273)"><path class="outline" fill="#A5ABB6" stroke="none" d="M 25 0.5 L 37.93992613895969 0.5 L 37.93992613895969 -0.5 L 25 -0.5 Z M 95.93992613895969 0.5 L 108.87985227791938 0.5 L 108.87985227791938 3.5 L 115.87985227791938 0 L 108.87985227791938 -3.5 L 108.87985227791938 -0.5 L 95.93992613895969 -0.5 Z"/><text text-anchor="middle" pointer-events="none" font-size="8px" fill="#000000" x="66.93992613895969" y="3" font-family="sans-serif">DESTINATION</text></g><g class="relationship" transform="translate(-288.0253495411767 6.744434900294545) rotate(449.2694730917417)"><path class="outline" fill="#A5ABB6" stroke="none" d="M 25 0.5 L 63.929047427841766 0.5 L 63.929047427841766 -0.5 L 25 -0.5 Z M 97.92904742784177 0.5 L 136.85809485568353 0.5 L 136.85809485568353 3.5 L 143.85809485568353 0 L 136.85809485568353 -3.5 L 136.85809485568353 -0.5 L 97.92904742784177 -0.5 Z"/><text text-anchor="middle" pointer-events="none" font-size="8px" fill="#000000" x="80.92904742784177" y="3" font-family="sans-serif">ORIGIN</text></g><g class="relationship" transform="translate(-288.0253495411767 6.744434900294545) rotate(314.3946200551576)"><path class="outline" fill="#A5ABB6" stroke="none" d="M 25 0.5 L 63.0835123049539 0.5 L 63.0835123049539 -0.5 L 25 -0.5 Z M 121.0835123049539 0.5 L 159.1670246099078 0.5 L 159.1670246099078 3.5 L 166.1670246099078 0 L 159.1670246099078 -3.5 L 159.1670246099078 -0.5 L 121.0835123049539 -0.5 Z"/><text text-anchor="middle" pointer-events="none" font-size="8px" fill="#000000" x="92.0835123049539" y="3" font-family="sans-serif">DESTINATION</text></g><g class="relationship" transform="translate(12.019777778786747 -148.02255064442684) rotate(533.7645003609821)"><path class="outline" fill="#A5ABB6" stroke="none" d="M 25 0.5 L 51.14756774733766 0.5 L 51.14756774733766 -0.5 L 25 -0.5 Z M 109.14756774733766 0.5 L 135.29513549467532 0.5 L 135.29513549467532 3.5 L 142.29513549467532 0 L 135.29513549467532 -3.5 L 135.29513549467532 -0.5 L 109.14756774733766 -0.5 Z"/><text text-anchor="middle" pointer-events="none" font-size="8px" fill="#000000" x="80.14756774733766" y="3" transform="rotate(180 80.14756774733766 0)" font-family="sans-serif">DESTINATION</text></g><g class="relationship" transform="translate(12.019777778786747 -148.02255064442684) rotate(395.82341476868135)"><path class="outline" fill="#A5ABB6" stroke="none" d="M 25 0.5 L 66.82431627203654 0.5 L 66.82431627203654 -0.5 L 25 -0.5 Z M 100.82431627203654 0.5 L 142.64863254407308 0.5 L 142.64863254407308 3.5 L 149.64863254407308 0 L 142.64863254407308 -3.5 L 142.64863254407308 -0.5 L 100.82431627203654 -0.5 Z"/><text text-anchor="middle" pointer-events="none" font-size="8px" fill="#000000" x="83.82431627203654" y="3" font-family="sans-serif">ORIGIN</text></g><g class="relationship" transform="translate(-2.152593697599288 -89.81252186916558) rotate(194.74504644938548)"><path class="outline" fill="#A5ABB6" stroke="none" d="M 25 0.5 L 46.15684244224231 0.5 L 46.15684244224231 -0.5 L 25 -0.5 Z M 104.15684244224231 0.5 L 125.31368488448462 0.5 L 125.31368488448462 3.5 L 132.31368488448462 0 L 125.31368488448462 -3.5 L 125.31368488448462 -0.5 L 104.15684244224231 -0.5 Z"/><text text-anchor="middle" pointer-events="none" font-size="8px" fill="#000000" x="75.15684244224231" y="3" transform="rotate(180 75.15684244224231 0)" font-family="sans-serif">DESTINATION</text></g><g class="relationship" transform="translate(-2.152593697599288 -89.81252186916558) rotate(375.7755142664258)"><path class="outline" fill="#A5ABB6" stroke="none" d="M 25 0.5 L 60.4395456115152 0.5 L 60.4395456115152 -0.5 L 25 -0.5 Z M 94.4395456115152 0.5 L 129.8790912230304 0.5 L 129.8790912230304 3.5 L 136.8790912230304 0 L 129.8790912230304 -3.5 L 129.8790912230304 -0.5 L 94.4395456115152 -0.5 Z"/><text text-anchor="middle" pointer-events="none" font-size="8px" fill="#000000" x="77.4395456115152" y="3" font-family="sans-serif">ORIGIN</text></g><g class="relationship" transform="translate(63.844327969013634 270.9106341011893) rotate(230.17702874619454)"><path class="outline" fill="#A5ABB6" stroke="none" d="M 25 0.5 L 70.02322257792258 0.5 L 70.02322257792258 -0.5 L 25 -0.5 Z M 128.02322257792258 0.5 L 173.04644515584516 0.5 L 173.04644515584516 3.5 L 180.04644515584516 0 L 173.04644515584516 -3.5 L 173.04644515584516 -0.5 L 128.02322257792258 -0.5 Z"/><text text-anchor="middle" pointer-events="none" font-size="8px" fill="#000000" x="99.02322257792258" y="3" transform="rotate(180 99.02322257792258 0)" font-family="sans-serif">DESTINATION</text></g><g class="relationship" transform="translate(63.844327969013634 270.9106341011893) rotate(387.3603570445597)"><path class="outline" fill="#A5ABB6" stroke="none" d="M 25 0.5 L 71.15579770077586 0.5 L 71.15579770077586 -0.5 L 25 -0.5 Z M 105.15579770077586 0.5 L 151.31159540155173 0.5 L 151.31159540155173 3.5 L 158.31159540155173 0 L 151.31159540155173 -3.5 L 151.31159540155173 -0.5 L 105.15579770077586 -0.5 Z"/><text text-anchor="middle" pointer-events="none" font-size="8px" fill="#000000" x="88.15579770077586" y="3" font-family="sans-serif">ORIGIN</text></g></g><g class="layer nodes"><g class="node" transform="translate(-285.87245030789023,175.58880472997626)"><circle class="outline" cx="0" cy="0" r="25" fill="#4C8EDA" stroke="#2870c2" stroke-width="2px"/><text text-anchor="middle" pointer-events="none" font-family="sans-serif" dy="1.5625" font-size="25" fill="#FFFFFF"/><text text-anchor="middle" pointer-events="none" x="0" y="5" font-size="10px" fill="#FFFFFF" font-family="sans-serif"> LAX</text></g><g class="node" transform="translate(645.1505574870921,128.65750396116)"><circle class="outline" cx="0" cy="0" r="25" fill="#4C8EDA" stroke="#2870c2" stroke-width="2px"/><text text-anchor="middle" pointer-events="none" font-family="sans-serif" dy="1.5625" font-size="25" fill="#FFFFFF"/><text text-anchor="middle" pointer-events="none" x="0" y="5" font-size="10px" fill="#FFFFFF" font-family="sans-serif"> DAY</text></g><g class="node" transform="translate(-89.43204883354963,238.16593772358942)"><circle class="outline" cx="0" cy="0" r="25" fill="#ECB5C9" stroke="#da7298" stroke-width="2px"/><text text-anchor="middle" pointer-events="none" font-family="sans-serif" dy="1.5625" font-size="25" fill="#2A2C34"/><text text-anchor="middle" pointer-events="none" x="0" y="5" font-size="10px" fill="#2A2C34" font-family="sans-serif"> 11/29/2…</text></g><g class="node" transform="translate(134.20398360241498,265.5991525882571)"><circle class="outline" cx="0" cy="0" r="25" fill="#4C8EDA" stroke="#2870c2" stroke-width="2px"/><text text-anchor="middle" pointer-events="none" font-family="sans-serif" dy="1.5625" font-size="25" fill="#FFFFFF"/><text text-anchor="middle" pointer-events="none" x="0" y="5" font-size="10px" fill="#FFFFFF" font-family="sans-serif"> LAS</text></g><g class="node" transform="translate(174.20097195706938,426.8256292771082)"><circle class="outline" cx="0" cy="0" r="25" fill="#ECB5C9" stroke="#da7298" stroke-width="2px"/><text text-anchor="middle" pointer-events="none" font-family="sans-serif" dy="1.5625" font-size="25" fill="#2A2C34"/><text text-anchor="middle" pointer-events="none" x="0" y="5" font-size="10px" fill="#2A2C34" font-family="sans-serif"> 11/29/2…</text></g><g class="node" transform="translate(226.64951234251524,355.15796610507147)"><circle class="outline" cx="0" cy="0" r="25" fill="#4C8EDA" stroke="#2870c2" stroke-width="2px"/><text text-anchor="middle" pointer-events="none" font-family="sans-serif" dy="1.5625" font-size="25" fill="#FFFFFF"/><text text-anchor="middle" pointer-events="none" x="0" y="5" font-size="10px" fill="#FFFFFF" font-family="sans-serif"> DEN</text></g><g class="node" transform="translate(363.4873164127244,231.2487569325391)"><circle class="outline" cx="0" cy="0" r="25" fill="#ECB5C9" stroke="#da7298" stroke-width="2px"/><text text-anchor="middle" pointer-events="none" font-family="sans-serif" dy="1.5625" font-size="25" fill="#2A2C34"/><text text-anchor="middle" pointer-events="none" x="0" y="5" font-size="10px" fill="#2A2C34" font-family="sans-serif"> 11/29/2…</text></g><g class="node" transform="translate(437.7899590860676,63.58614275303386)"><circle class="outline" cx="0" cy="0" r="25" fill="#4C8EDA" stroke="#2870c2" stroke-width="2px"/><text text-anchor="middle" pointer-events="none" font-family="sans-serif" dy="1.5625" font-size="25" fill="#FFFFFF"/><text text-anchor="middle" pointer-events="none" x="0" y="5" font-size="10px" fill="#FFFFFF" font-family="sans-serif"> MSP</text></g><g class="node" transform="translate(552.1912937033136,72.64782267218247)"><circle class="outline" cx="0" cy="0" r="25" fill="#ECB5C9" stroke="#da7298" stroke-width="2px"/><text text-anchor="middle" pointer-events="none" font-family="sans-serif" dy="1.5625" font-size="25" fill="#2A2C34"/><text text-anchor="middle" pointer-events="none" x="0" y="5" font-size="10px" fill="#2A2C34" font-family="sans-serif"> 11/23/2…</text></g><g class="node" transform="translate(528.1295810656138,190.05245977615184)"><circle class="outline" cx="0" cy="0" r="25" fill="#ECB5C9" stroke="#da7298" stroke-width="2px"/><text text-anchor="middle" pointer-events="none" font-family="sans-serif" dy="1.5625" font-size="25" fill="#2A2C34"/><text text-anchor="middle" pointer-events="none" x="0" y="5" font-size="10px" fill="#2A2C34" font-family="sans-serif"> 11/20/2…</text></g><g class="node" transform="translate(537.9498987356394,130.9547292216011)"><circle class="outline" cx="0" cy="0" r="25" fill="#ECB5C9" stroke="#da7298" stroke-width="2px"/><text text-anchor="middle" pointer-events="none" font-family="sans-serif" dy="1.5625" font-size="25" fill="#2A2C34"/><text text-anchor="middle" pointer-events="none" x="0" y="5" font-size="10px" fill="#2A2C34" font-family="sans-serif"> 11/11/2…</text></g><g class="node" transform="translate(597.9571543882105,33.885638583893865)"><circle class="outline" cx="0" cy="0" r="25" fill="#ECB5C9" stroke="#da7298" stroke-width="2px"/><text text-anchor="middle" pointer-events="none" font-family="sans-serif" dy="1.5625" font-size="25" fill="#2A2C34"/><text text-anchor="middle" pointer-events="none" x="0" y="5" font-size="10px" fill="#2A2C34" font-family="sans-serif"> 11/25/2…</text></g><g class="node" transform="translate(545.7759201878957,4.546517808023918)"><circle class="outline" cx="0" cy="0" r="25" fill="#ECB5C9" stroke="#da7298" stroke-width="2px"/><text text-anchor="middle" pointer-events="none" font-family="sans-serif" dy="1.5625" font-size="25" fill="#2A2C34"/><text text-anchor="middle" pointer-events="none" x="0" y="5" font-size="10px" fill="#2A2C34" font-family="sans-serif"> 11/16/2…</text></g><g class="node" transform="translate(-246.56992508420544,342.8340741508609)"><circle class="outline" cx="0" cy="0" r="25" fill="#ECB5C9" stroke="#da7298" stroke-width="2px"/><text text-anchor="middle" pointer-events="none" font-family="sans-serif" dy="1.5625" font-size="25" fill="#2A2C34"/><text text-anchor="middle" pointer-events="none" x="0" y="5" font-size="10px" fill="#2A2C34" font-family="sans-serif"> 11/3/20…</text></g><g class="node" transform="translate(-73.1442899513908,324.0510234175316)"><circle class="outline" cx="0" cy="0" r="25" fill="#4C8EDA" stroke="#2870c2" stroke-width="2px"/><text text-anchor="middle" pointer-events="none" font-family="sans-serif" dy="1.5625" font-size="25" fill="#FFFFFF"/><text text-anchor="middle" pointer-events="none" x="0" y="5" font-size="10px" fill="#FFFFFF" font-family="sans-serif"> SMF</text></g><g class="node" transform="translate(67.40982631122809,408.10265344830196)"><circle class="outline" cx="0" cy="0" r="25" fill="#ECB5C9" stroke="#da7298" stroke-width="2px"/><text text-anchor="middle" pointer-events="none" font-family="sans-serif" dy="1.5625" font-size="25" fill="#2A2C34"/><text text-anchor="middle" pointer-events="none" x="0" y="5" font-size="10px" fill="#2A2C34" font-family="sans-serif"> 11/30/2…</text></g><g class="node" transform="translate(-243.15116463559465,283.03063987319376)"><circle class="outline" cx="0" cy="0" r="25" fill="#ECB5C9" stroke="#da7298" stroke-width="2px"/><text text-anchor="middle" pointer-events="none" font-family="sans-serif" dy="1.5625" font-size="25" fill="#2A2C34"/><text text-anchor="middle" pointer-events="none" x="0" y="5" font-size="10px" fill="#2A2C34" font-family="sans-serif"> 11/2/20…</text></g><g class="node" transform="translate(-193.0962552855266,315.9115664375013)"><circle class="outline" cx="0" cy="0" r="25" fill="#ECB5C9" stroke="#da7298" stroke-width="2px"/><text text-anchor="middle" pointer-events="none" font-family="sans-serif" dy="1.5625" font-size="25" fill="#2A2C34"/><text text-anchor="middle" pointer-events="none" x="0" y="5" font-size="10px" fill="#2A2C34" font-family="sans-serif"> 11/1/20…</text></g><g class="node" transform="translate(-189.56776728080723,256.03459066225554)"><circle class="outline" cx="0" cy="0" r="25" fill="#ECB5C9" stroke="#da7298" stroke-width="2px"/><text text-anchor="middle" pointer-events="none" font-family="sans-serif" dy="1.5625" font-size="25" fill="#2A2C34"/><text text-anchor="middle" pointer-events="none" x="0" y="5" font-size="10px" fill="#2A2C34" font-family="sans-serif"> 11/4/20…</text></g><g class="node" transform="translate(209.96264837623153,111.91374610577931)"><circle class="outline" cx="0" cy="0" r="25" fill="#ECB5C9" stroke="#da7298" stroke-width="2px"/><text text-anchor="middle" pointer-events="none" font-family="sans-serif" dy="1.5625" font-size="25" fill="#2A2C34"/><text text-anchor="middle" pointer-events="none" x="0" y="5" font-size="10px" fill="#2A2C34" font-family="sans-serif"> 11/29/2…</text></g><g class="node" transform="translate(153.62920280630698,-45.80261328928172)"><circle class="outline" cx="0" cy="0" r="25" fill="#4C8EDA" stroke="#2870c2" stroke-width="2px"/><text text-anchor="middle" pointer-events="none" font-family="sans-serif" dy="1.5625" font-size="25" fill="#FFFFFF"/><text text-anchor="middle" pointer-events="none" x="0" y="5" font-size="10px" fill="#FFFFFF" font-family="sans-serif"> ORD</text></g><g class="node" transform="translate(306.95929536298775,-20.673722947842066)"><circle class="outline" cx="0" cy="0" r="25" fill="#ECB5C9" stroke="#da7298" stroke-width="2px"/><text text-anchor="middle" pointer-events="none" font-family="sans-serif" dy="1.5625" font-size="25" fill="#2A2C34"/><text text-anchor="middle" pointer-events="none" x="0" y="5" font-size="10px" fill="#2A2C34" font-family="sans-serif"> 11/29/2…</text></g><g class="node" transform="translate(332.20645360812824,-74.93108465910137)"><circle class="outline" cx="0" cy="0" r="25" fill="#ECB5C9" stroke="#da7298" stroke-width="2px"/><text text-anchor="middle" pointer-events="none" font-family="sans-serif" dy="1.5625" font-size="25" fill="#2A2C34"/><text text-anchor="middle" pointer-events="none" x="0" y="5" font-size="10px" fill="#2A2C34" font-family="sans-serif"> 11/29/2…</text></g><g class="node" transform="translate(150.73437030713444,102.9853962447274)"><circle class="outline" cx="0" cy="0" r="25" fill="#ECB5C9" stroke="#da7298" stroke-width="2px"/><text text-anchor="middle" pointer-events="none" font-family="sans-serif" dy="1.5625" font-size="25" fill="#2A2C34"/><text text-anchor="middle" pointer-events="none" x="0" y="5" font-size="10px" fill="#2A2C34" font-family="sans-serif"> 11/29/2…</text></g><g class="node" transform="translate(297.00685989062976,38.421964673820504)"><circle class="outline" cx="0" cy="0" r="25" fill="#ECB5C9" stroke="#da7298" stroke-width="2px"/><text text-anchor="middle" pointer-events="none" font-family="sans-serif" dy="1.5625" font-size="25" fill="#2A2C34"/><text text-anchor="middle" pointer-events="none" x="0" y="5" font-size="10px" fill="#2A2C34" font-family="sans-serif"> 11/30/2…</text></g><g class="node" transform="translate(73.04471863906873,159.23936468324308)"><circle class="outline" cx="0" cy="0" r="25" fill="#ECB5C9" stroke="#da7298" stroke-width="2px"/><text text-anchor="middle" pointer-events="none" font-family="sans-serif" dy="1.5625" font-size="25" fill="#2A2C34"/><text text-anchor="middle" pointer-events="none" x="0" y="5" font-size="10px" fill="#2A2C34" font-family="sans-serif"> 11/30/2…</text></g><g class="node" transform="translate(23.036739761705025,126.32950040530767)"><circle class="outline" cx="0" cy="0" r="25" fill="#ECB5C9" stroke="#da7298" stroke-width="2px"/><text text-anchor="middle" pointer-events="none" font-family="sans-serif" dy="1.5625" font-size="25" fill="#2A2C34"/><text text-anchor="middle" pointer-events="none" x="0" y="5" font-size="10px" fill="#2A2C34" font-family="sans-serif"> 11/29/2…</text></g><g class="node" transform="translate(-203.99782135443888,-33.04567369261809)"><circle class="outline" cx="0" cy="0" r="25" fill="#ECB5C9" stroke="#da7298" stroke-width="2px"/><text text-anchor="middle" pointer-events="none" font-family="sans-serif" dy="1.5625" font-size="25" fill="#2A2C34"/><text text-anchor="middle" pointer-events="none" x="0" y="5" font-size="10px" fill="#2A2C34" font-family="sans-serif"> 11/30/2…</text></g><g class="node" transform="translate(-48.679081814871104,-215.12248662164936)"><circle class="outline" cx="0" cy="0" r="25" fill="#4C8EDA" stroke="#2870c2" stroke-width="2px"/><text text-anchor="middle" pointer-events="none" font-family="sans-serif" dy="1.5625" font-size="25" fill="#FFFFFF"/><text text-anchor="middle" pointer-events="none" x="0" y="5" font-size="10px" fill="#FFFFFF" font-family="sans-serif"> IAH</text></g><g class="node" transform="translate(132.52059835300776,-189.1889877264923)"><circle class="outline" cx="0" cy="0" r="25" fill="#ECB5C9" stroke="#da7298" stroke-width="2px"/><text text-anchor="middle" pointer-events="none" font-family="sans-serif" dy="1.5625" font-size="25" fill="#2A2C34"/><text text-anchor="middle" pointer-events="none" x="0" y="5" font-size="10px" fill="#2A2C34" font-family="sans-serif"> 11/29/2…</text></g><g class="node" transform="translate(80.71388394960049,-219.21769772674818)"><circle class="outline" cx="0" cy="0" r="25" fill="#ECB5C9" stroke="#da7298" stroke-width="2px"/><text text-anchor="middle" pointer-events="none" font-family="sans-serif" dy="1.5625" font-size="25" fill="#2A2C34"/><text text-anchor="middle" pointer-events="none" x="0" y="5" font-size="10px" fill="#2A2C34" font-family="sans-serif"> 11/30/2…</text></g><g class="node" transform="translate(80.54482436976201,-159.30001238637183)"><circle class="outline" cx="0" cy="0" r="25" fill="#ECB5C9" stroke="#da7298" stroke-width="2px"/><text text-anchor="middle" pointer-events="none" font-family="sans-serif" dy="1.5625" font-size="25" fill="#2A2C34"/><text text-anchor="middle" pointer-events="none" x="0" y="5" font-size="10px" fill="#2A2C34" font-family="sans-serif"> 11/29/2…</text></g><g class="node" transform="translate(-215.3152724237598,86.87644242943885)"><circle class="outline" cx="0" cy="0" r="25" fill="#ECB5C9" stroke="#da7298" stroke-width="2px"/><text text-anchor="middle" pointer-events="none" font-family="sans-serif" dy="1.5625" font-size="25" fill="#2A2C34"/><text text-anchor="middle" pointer-events="none" x="0" y="5" font-size="10px" fill="#2A2C34" font-family="sans-serif"> 11/30/2…</text></g><g class="node" transform="translate(-67.47103895503064,113.42946354212648)"><circle class="outline" cx="0" cy="0" r="25" fill="#4C8EDA" stroke="#2870c2" stroke-width="2px"/><text text-anchor="middle" pointer-events="none" font-family="sans-serif" dy="1.5625" font-size="25" fill="#FFFFFF"/><text text-anchor="middle" pointer-events="none" x="0" y="5" font-size="10px" fill="#FFFFFF" font-family="sans-serif"> EWR</text></g><g class="node" transform="translate(57.83608102195413,36.153149717055186)"><circle class="outline" cx="0" cy="0" r="25" fill="#ECB5C9" stroke="#da7298" stroke-width="2px"/><text text-anchor="middle" pointer-events="none" font-family="sans-serif" dy="1.5625" font-size="25" fill="#2A2C34"/><text text-anchor="middle" pointer-events="none" x="0" y="5" font-size="10px" fill="#2A2C34" font-family="sans-serif"> 11/30/2…</text></g><g class="node" transform="translate(-189.84832290795038,142.88352954409748)"><circle class="outline" cx="0" cy="0" r="25" fill="#ECB5C9" stroke="#da7298" stroke-width="2px"/><text text-anchor="middle" pointer-events="none" font-family="sans-serif" dy="1.5625" font-size="25" fill="#2A2C34"/><text text-anchor="middle" pointer-events="none" x="0" y="5" font-size="10px" fill="#2A2C34" font-family="sans-serif"> 11/29/2…</text></g><g class="node" transform="translate(17.78704920844851,-8.4657403116981)"><circle class="outline" cx="0" cy="0" r="25" fill="#ECB5C9" stroke="#da7298" stroke-width="2px"/><text text-anchor="middle" pointer-events="none" font-family="sans-serif" dy="1.5625" font-size="25" fill="#2A2C34"/><text text-anchor="middle" pointer-events="none" x="0" y="5" font-size="10px" fill="#2A2C34" font-family="sans-serif"> 11/30/2…</text></g><g class="node" transform="translate(-288.0253495411767,6.744434900294545)"><circle class="outline" cx="0" cy="0" r="25" fill="#ECB5C9" stroke="#da7298" stroke-width="2px"/><text text-anchor="middle" pointer-events="none" font-family="sans-serif" dy="1.5625" font-size="25" fill="#2A2C34"/><text text-anchor="middle" pointer-events="none" x="0" y="5" font-size="10px" fill="#2A2C34" font-family="sans-serif"> 11/29/2…</text></g><g class="node" transform="translate(-154.28561599063013,-129.8517398925374)"><circle class="outline" cx="0" cy="0" r="25" fill="#4C8EDA" stroke="#2870c2" stroke-width="2px"/><text text-anchor="middle" pointer-events="none" font-family="sans-serif" dy="1.5625" font-size="25" fill="#FFFFFF"/><text text-anchor="middle" pointer-events="none" x="0" y="5" font-size="10px" fill="#FFFFFF" font-family="sans-serif"> BOS</text></g><g class="node" transform="translate(12.019777778786747,-148.02255064442684)"><circle class="outline" cx="0" cy="0" r="25" fill="#ECB5C9" stroke="#da7298" stroke-width="2px"/><text text-anchor="middle" pointer-events="none" font-family="sans-serif" dy="1.5625" font-size="25" fill="#2A2C34"/><text text-anchor="middle" pointer-events="none" x="0" y="5" font-size="10px" fill="#2A2C34" font-family="sans-serif"> 11/30/2…</text></g><g class="node" transform="translate(-2.152593697599288,-89.81252186916558)"><circle class="outline" cx="0" cy="0" r="25" fill="#ECB5C9" stroke="#da7298" stroke-width="2px"/><text text-anchor="middle" pointer-events="none" font-family="sans-serif" dy="1.5625" font-size="25" fill="#2A2C34"/><text text-anchor="middle" pointer-events="none" x="0" y="5" font-size="10px" fill="#2A2C34" font-family="sans-serif"> 11/29/2…</text></g><g class="node" transform="translate(63.844327969013634,270.9106341011893)"><circle class="outline" cx="0" cy="0" r="25" fill="#ECB5C9" stroke="#da7298" stroke-width="2px"/><text text-anchor="middle" pointer-events="none" font-family="sans-serif" dy="1.5625" font-size="25" fill="#2A2C34"/><text text-anchor="middle" pointer-events="none" x="0" y="5" font-size="10px" fill="#2A2C34" font-family="sans-serif"> 11/30/2…</text></g></g></svg>