<svg xmlns="http://www.w3.org/2000/svg" width="406.78350830078125" height="400.0357666015625" viewBox="-97.95381164550781 -85.38829803466797 406.78350830078125 400.0357666015625"><title>Neo4j Graph Visualization</title><desc>Created using Neo4j (http://www.neo4j.com/)</desc><g class="layer relationships"><g class="relationship" transform="translate(279.8297084447164 108.36857137688924) rotate(465.70336029794146)"><path class="outline" fill="#A5ABB6" stroke="none" d="M 25 0.5 L 33.27838238756972 0.5 L 33.27838238756972 -0.5 L 25 -0.5 Z M 67.27838238756972 0.5 L 75.55676477513944 0.5 L 75.55676477513944 3.5 L 82.55676477513944 0 L 75.55676477513944 -3.5 L 75.55676477513944 -0.5 L 67.27838238756972 -0.5 Z"/><text text-anchor="middle" pointer-events="none" font-size="8px" fill="#000000" x="50.27838238756972" y="3" transform="rotate(180 50.27838238756972 0)" font-family="sans-serif">ORIGIN</text></g><g class="relationship" transform="translate(279.8297084447164 108.36857137688924) rotate(251.92698346891666)"><path class="outline" fill="#A5ABB6" stroke="none" d="M 25 0.5 L 26.642850151734585 0.5 L 26.642850151734585 -0.5 L 25 -0.5 Z M 74.64285015173459 0.5 L 76.28570030346917 0.5 L 76.28570030346917 3.5 L 83.28570030346917 0 L 76.28570030346917 -3.5 L 76.28570030346917 -0.5 L 74.64285015173459 -0.5 Z"/><text text-anchor="middle" pointer-events="none" font-size="8px" fill="#000000" x="50.642850151734585" y="3" transform="rotate(180 50.642850151734585 0)" font-family="sans-serif">DESTINA…</text></g><g class="relationship" transform="translate(155.568222689403 -54.04841401414002) rotate(393.26292466409535)"><path class="outline" fill="#A5ABB6" stroke="none" d="M 25 0.5 L 33.71682603713223 0.5 L 33.71682603713223 -0.5 L 25 -0.5 Z M 67.71682603713222 0.5 L 76.43365207426446 0.5 L 76.43365207426446 3.5 L 83.43365207426446 0 L 76.43365207426446 -3.5 L 76.43365207426446 -0.5 L 67.71682603713222 -0.5 Z"/><text text-anchor="middle" pointer-events="none" font-size="8px" fill="#000000" x="50.71682603713223" y="3" font-family="sans-serif">ORIGIN</text></g><g class="relationship" transform="translate(155.568222689403 -54.04841401414002) rotate(181.2331638576407)"><path class="outline" fill="#A5ABB6" stroke="none" d="M 25 0.5 L 26.86250668093399 0.5 L 26.86250668093399 -0.5 L 25 -0.5 Z M 74.86250668093399 0.5 L 76.72501336186798 0.5 L 76.72501336186798 3.5 L 83.72501336186798 0 L 76.72501336186798 -3.5 L 76.72501336186798 -0.5 L 74.86250668093399 -0.5 Z"/><text text-anchor="middle" pointer-events="none" font-size="8px" fill="#000000" x="50.86250668093399" y="3" transform="rotate(180 50.86250668093399 0)" font-family="sans-serif">DESTINA…</text></g><g class="relationship" transform="translate(-43.9576972277338 3.5473546159122633) rotate(326.57939278320623)"><path class="outline" fill="#A5ABB6" stroke="none" d="M 25 0.5 L 26.90969709069337 0.5 L 26.90969709069337 -0.5 L 25 -0.5 Z M 74.90969709069337 0.5 L 76.81939418138674 0.5 L 76.81939418138674 3.5 L 83.81939418138674 0 L 76.81939418138674 -3.5 L 76.81939418138674 -0.5 L 74.90969709069337 -0.5 Z"/><text text-anchor="middle" pointer-events="none" font-size="8px" fill="#000000" x="50.90969709069337" y="3" font-family="sans-serif">DESTINA…</text></g><g class="relationship" transform="translate(-43.9576972277338 3.5473546159122633) rotate(463.24251635903397)"><path class="outline" fill="#A5ABB6" stroke="none" d="M 25 0.5 L 34.05921183831319 0.5 L 34.05921183831319 -0.5 L 25 -0.5 Z M 68.05921183831319 0.5 L 77.11842367662638 0.5 L 77.11842367662638 3.5 L 84.11842367662638 0 L 77.11842367662638 -3.5 L 77.11842367662638 -0.5 L 68.05921183831319 -0.5 Z"/><text text-anchor="middle" pointer-events="none" font-size="8px" fill="#000000" x="51.05921183831319" y="3" transform="rotate(180 51.05921183831319 0)" font-family="sans-serif">ORIGIN</text></g><g class="relationship" transform="translate(-34.36147759292258 211.70901627468928) rotate(251.25668266047091)"><path class="outline" fill="#A5ABB6" stroke="none" d="M 25 0.5 L 33.32696518886049 0.5 L 33.32696518886049 -0.5 L 25 -0.5 Z M 67.3269651888605 0.5 L 75.65393037772098 0.5 L 75.65393037772098 3.5 L 82.65393037772098 0 L 75.65393037772098 -3.5 L 75.65393037772098 -0.5 L 67.3269651888605 -0.5 Z"/><text text-anchor="middle" pointer-events="none" font-size="8px" fill="#000000" x="50.32696518886049" y="3" transform="rotate(180 50.32696518886049 0)" font-family="sans-serif">ORIGIN</text></g><g class="relationship" transform="translate(-34.36147759292258 211.70901627468928) rotate(403.9735051548626)"><path class="outline" fill="#A5ABB6" stroke="none" d="M 25 0.5 L 25.74477440711383 0.5 L 25.74477440711383 -0.5 L 25 -0.5 Z M 73.74477440711382 0.5 L 74.48954881422766 0.5 L 74.48954881422766 3.5 L 81.48954881422766 0 L 74.48954881422766 -3.5 L 74.48954881422766 -0.5 L 73.74477440711382 -0.5 Z"/><text text-anchor="middle" pointer-events="none" font-size="8px" fill="#000000" x="49.74477440711383" y="3" font-family="sans-serif">DESTINA…</text></g></g><g class="layer nodes"><g class="node" transform="translate(250.71872730259446,211.91087396784815)"><circle class="outline" cx="0" cy="0" r="25" fill="#4C8EDA" stroke="#2870c2" stroke-width="2px"/><text text-anchor="middle" pointer-events="none" font-family="sans-serif" dy="1.5625" font-size="25" fill="#FFFFFF"/><text text-anchor="middle" pointer-events="none" x="0" y="5" font-size="10px" fill="#FFFFFF" font-family="sans-serif"> LAX</text></g><g class="node" transform="translate(42.274892157491244,285.6474422664267)"><circle class="outline" cx="0" cy="0" r="25" fill="#4C8EDA" stroke="#2870c2" stroke-width="2px"/><text text-anchor="middle" pointer-events="none" font-family="sans-serif" dy="1.5625" font-size="25" fill="#FFFFFF"/><text text-anchor="middle" pointer-events="none" x="0" y="5" font-size="10px" fill="#FFFFFF" font-family="sans-serif"> DAY</text></g><g class="node" transform="translate(279.8297084447164,108.36857137688924)"><circle class="outline" cx="0" cy="0" r="25" fill="#ECB5C9" stroke="#da7298" stroke-width="2px"/><text text-anchor="middle" pointer-events="none" font-family="sans-serif" dy="1.5625" font-size="25" fill="#2A2C34"/><text text-anchor="middle" pointer-events="none" x="0" y="5" font-size="10px" fill="#2A2C34" font-family="sans-serif"> 11/29/2…</text></g><g class="node" transform="translate(246.23637105595515,5.425477517720616)"><circle class="outline" cx="0" cy="0" r="25" fill="#4C8EDA" stroke="#2870c2" stroke-width="2px"/><text text-anchor="middle" pointer-events="none" font-family="sans-serif" dy="1.5625" font-size="25" fill="#FFFFFF"/><text text-anchor="middle" pointer-events="none" x="0" y="5" font-size="10px" fill="#FFFFFF" font-family="sans-serif"> LAS</text></g><g class="node" transform="translate(155.568222689403,-54.04841401414002)"><circle class="outline" cx="0" cy="0" r="25" fill="#ECB5C9" stroke="#da7298" stroke-width="2px"/><text text-anchor="middle" pointer-events="none" font-family="sans-serif" dy="1.5625" font-size="25" fill="#2A2C34"/><text text-anchor="middle" pointer-events="none" x="0" y="5" font-size="10px" fill="#2A2C34" font-family="sans-serif"> 11/29/2…</text></g><g class="node" transform="translate(46.868390678128755,-56.38829675887932)"><circle class="outline" cx="0" cy="0" r="25" fill="#4C8EDA" stroke="#2870c2" stroke-width="2px"/><text text-anchor="middle" pointer-events="none" font-family="sans-serif" dy="1.5625" font-size="25" fill="#FFFFFF"/><text text-anchor="middle" pointer-events="none" x="0" y="5" font-size="10px" fill="#FFFFFF" font-family="sans-serif"> DEN</text></g><g class="node" transform="translate(-43.9576972277338,3.5473546159122633)"><circle class="outline" cx="0" cy="0" r="25" fill="#ECB5C9" stroke="#da7298" stroke-width="2px"/><text text-anchor="middle" pointer-events="none" font-family="sans-serif" dy="1.5625" font-size="25" fill="#2A2C34"/><text text-anchor="middle" pointer-events="none" x="0" y="5" font-size="10px" fill="#2A2C34" font-family="sans-serif"> 11/29/2…</text></g><g class="node" transform="translate(-68.95380937488278,109.76423069122757)"><circle class="outline" cx="0" cy="0" r="25" fill="#4C8EDA" stroke="#2870c2" stroke-width="2px"/><text text-anchor="middle" pointer-events="none" font-family="sans-serif" dy="1.5625" font-size="25" fill="#FFFFFF"/><text text-anchor="middle" pointer-events="none" x="0" y="5" font-size="10px" fill="#FFFFFF" font-family="sans-serif"> MSP</text></g><g class="node" transform="translate(-34.36147759292258,211.70901627468928)"><circle class="outline" cx="0" cy="0" r="25" fill="#ECB5C9" stroke="#da7298" stroke-width="2px"/><text text-anchor="middle" pointer-events="none" font-family="sans-serif" dy="1.5625" font-size="25" fill="#2A2C34"/><text text-anchor="middle" pointer-events="none" x="0" y="5" font-size="10px" fill="#2A2C34" font-family="sans-serif"> 11/23/2…</text></g></g></svg>