<svg xmlns="http://www.w3.org/2000/svg" width="158.86544799804688" height="242.77420043945312" viewBox="1.320261001586914 -21.245878219604492 158.86544799804688 242.77420043945312"><title>Neo4j Graph Visualization</title><desc>Created using Neo4j (http://www.neo4j.com/)</desc><g class="layer relationships"><g class="relationship" transform="translate(131.185707159446 7.754121508319306) rotate(518.9982849116898)"><path class="outline" fill="#A5ABB6" stroke="none" d="M 21.40063509461097,12.933012701892217 L 21.90063509461097,12.06698729810778 A 59.943237611305285 59.943237611305285 0 0 0 39.69686090616207,18.84833029184206 L 39.49374553436565,19.82748510377938 A 60.943237611305285 60.943237611305285 0 0 1 21.40063509461097,12.933012701892217 Z M 60.551121778501695,20.476718375085774 L 60.4087127398879,19.486910481744296 A 59.943237611305285 59.943237611305285 0 0 0 78.58889949144086,13.814778994107161 L 77.25180226467353,11.129230445640555 L 85.0780289756575,11.14247688972781 L 80.3716957937973,17.395510392062636 L 79.03459856702997,14.70996184359603 A 60.943237611305285 60.943237611305285 0 0 1 60.551121778501695,20.476718375085774"/><text text-anchor="middle" pointer-events="none" font-size="8px" fill="#000000" x="50.00957536370181" y="23.56915046425724" transform="rotate(180 50.00957536370181 20.56915046425724)" font-family="sans-serif">road</text></g><g class="relationship" transform="translate(30.866547704075053 46.26648432441829) rotate(450.29329504517773)"><path class="outline" fill="#A5ABB6" stroke="none" d="M 25 0.5 L 40.85941017140967 0.5 L 40.85941017140967 -0.5 L 25 -0.5 Z M 58.85941017140967 0.5 L 74.71882034281934 0.5 L 74.71882034281934 3.5 L 81.71882034281934 0 L 74.71882034281934 -3.5 L 74.71882034281934 -0.5 L 58.85941017140967 -0.5 Z"/><text text-anchor="middle" pointer-events="none" font-size="8px" fill="#000000" x="49.85941017140967" y="3" transform="rotate(180 49.85941017140967 0)" font-family="sans-serif">trek</text></g><g class="relationship" transform="translate(30.320260267146264 152.98390645126318) rotate(381.5971266291477)"><path class="outline" fill="#A5ABB6" stroke="none" d="M 25 0.5 L 41.21745533006185 0.5 L 41.21745533006185 -0.5 L 25 -0.5 Z M 59.21745533006185 0.5 L 75.4349106601237 0.5 L 75.4349106601237 3.5 L 82.4349106601237 0 L 75.4349106601237 -3.5 L 75.4349106601237 -0.5 L 59.21745533006185 -0.5 Z"/><text text-anchor="middle" pointer-events="none" font-size="8px" fill="#000000" x="50.21745533006185" y="3" font-family="sans-serif">trek</text></g><g class="relationship" transform="translate(131.185707159446 7.754121508319306) rotate(518.9982849116898)"><path class="outline" fill="#A5ABB6" stroke="none" d="M 25 0.5 L 41.228800106439614 0.5 L 41.228800106439614 -0.5 L 25 -0.5 Z M 59.228800106439614 0.5 L 75.45760021287923 0.5 L 75.45760021287923 3.5 L 82.45760021287923 0 L 75.45760021287923 -3.5 L 75.45760021287923 -0.5 L 59.228800106439614 -0.5 Z"/><text text-anchor="middle" pointer-events="none" font-size="8px" fill="#000000" x="50.228800106439614" y="3" transform="rotate(180 50.228800106439614 0)" font-family="sans-serif">trek</text></g><g class="relationship" transform="translate(131.185707159446 7.754121508319306) rotate(518.9982849116898)"><path class="outline" fill="#A5ABB6" stroke="none" d="M 21.40063509461097,-12.933012701892217 L 21.90063509461097,-12.06698729810778 A 59.943237611305285 59.943237611305285 0 0 1 22.145770190525308,-12.207746503491101 L 21.64985964424324,-13.076120115530422 A 60.943237611305285 60.943237611305285 0 0 0 21.40063509461097,-12.933012701892217 Z M 78.77703129821526,-14.837444038482062 L 78.33555856961576,-13.940169370443954 A 59.943237611305285 59.943237611305285 0 0 1 78.58889949144086,-13.814778994107161 L 77.25180226467353,-11.129230445640555 L 85.0780289756575,-11.14247688972781 L 80.3716957937973,-17.395510392062636 L 79.03459856702997,-14.70996184359603 A 60.943237611305285 60.943237611305285 0 0 0 78.77703129821526,-14.837444038482062"/><text text-anchor="middle" pointer-events="none" font-size="8px" fill="#000000" x="50.009575363701806" y="-17.56915046425724" transform="rotate(180 50.009575363701806 -20.56915046425724)" font-family="sans-serif">PublicTransp…</text></g></g><g class="layer nodes"><g class="node" transform="translate(131.185707159446,7.754121508319306)"><circle class="outline" cx="0" cy="0" r="25" fill="#F16667" stroke="#eb2728" stroke-width="2px"/><text text-anchor="middle" pointer-events="none" font-family="sans-serif" dy="1.5625" font-size="25" fill="#FFFFFF"/><text text-anchor="middle" pointer-events="none" x="0" y="5" font-size="10px" fill="#FFFFFF" font-family="sans-serif"> Darjeeli…</text></g><g class="node" transform="translate(130.21269723203534,192.52832534653115)"><circle class="outline" cx="0" cy="0" r="25" fill="#D9C8AE" stroke="#c0a378" stroke-width="2px"/><text text-anchor="middle" pointer-events="none" font-family="sans-serif" dy="1.5625" font-size="25" fill="#2A2C34"/><text text-anchor="middle" pointer-events="none" x="0" y="5" font-size="10px" fill="#2A2C34" font-family="sans-serif"> Sandak…</text></g><g class="node" transform="translate(30.866547704075053,46.26648432441829)"><circle class="outline" cx="0" cy="0" r="25" fill="#F16667" stroke="#eb2728" stroke-width="2px"/><text text-anchor="middle" pointer-events="none" font-family="sans-serif" dy="1.5625" font-size="25" fill="#FFFFFF"/><text text-anchor="middle" pointer-events="none" x="0" y="5" font-size="10px" fill="#FFFFFF" font-family="sans-serif"> Rimbik</text></g><g class="node" transform="translate(30.320260267146264,152.98390645126318)"><circle class="outline" cx="0" cy="0" r="25" fill="#8DCC93" stroke="#5db665" stroke-width="2px"/><text text-anchor="middle" pointer-events="none" font-family="sans-serif" dy="1.5625" font-size="25" fill="#2A2C34"/><text text-anchor="middle" pointer-events="none" x="0" y="5" font-size="10px" fill="#2A2C34" font-family="sans-serif"> BhikeB…</text></g></g></svg>