<svg xmlns="http://www.w3.org/2000/svg" width="267.6585388183594" height="289.5081787109375" viewBox="-30.433612823486328 -40.476112365722656 267.6585388183594 289.5081787109375"><title>Neo4j Graph Visualization</title><desc>Created using Neo4j (http://www.neo4j.com/)</desc><g class="layer relationships"><g class="relationship" transform="translate(115.31184471230732 -11.476114443636956) rotate(391.00277967717557)"><path class="outline" fill="#A5ABB6" stroke="none" d="M 25 0.5 L 33.69932858438882 0.5 L 33.69932858438882 -0.5 L 25 -0.5 Z M 67.69932858438882 0.5 L 76.39865716877765 0.5 L 76.39865716877765 3.5 L 83.39865716877765 0 L 76.39865716877765 -3.5 L 76.39865716877765 -0.5 L 67.69932858438882 -0.5 Z"/><text text-anchor="middle" pointer-events="none" font-size="8px" fill="#000000" x="50.69932858438882" y="3" font-family="sans-serif">ORIGIN</text></g><g class="relationship" transform="translate(115.31184471230732 -11.476114443636956) rotate(509.2052143751723)"><path class="outline" fill="#A5ABB6" stroke="none" d="M 25 0.5 L 26.37575849211718 0.5 L 26.37575849211718 -0.5 L 25 -0.5 Z M 74.37575849211717 0.5 L 75.75151698423436 0.5 L 75.75151698423436 3.5 L 82.75151698423436 0 L 75.75151698423436 -3.5 L 75.75151698423436 -0.5 L 74.37575849211717 -0.5 Z"/><text text-anchor="middle" pointer-events="none" font-size="8px" fill="#000000" x="50.37575849211718" y="3" transform="rotate(180 50.37575849211718 0)" font-family="sans-serif">DESTINA…</text></g><g class="relationship" transform="translate(-1.433612221271506 148.6793977387369) rotate(282.97265543683307)"><path class="outline" fill="#A5ABB6" stroke="none" d="M 25 0.5 L 33.37018189720769 0.5 L 33.37018189720769 -0.5 L 25 -0.5 Z M 67.37018189720769 0.5 L 75.74036379441537 0.5 L 75.74036379441537 3.5 L 82.74036379441537 0 L 75.74036379441537 -3.5 L 75.74036379441537 -0.5 L 67.37018189720769 -0.5 Z"/><text text-anchor="middle" pointer-events="none" font-size="8px" fill="#000000" x="50.37018189720769" y="3" font-family="sans-serif">ORIGIN</text></g><g class="relationship" transform="translate(-1.433612221271506 148.6793977387369) rotate(401.17332739482475)"><path class="outline" fill="#A5ABB6" stroke="none" d="M 25 0.5 L 26.691428160624554 0.5 L 26.691428160624554 -0.5 L 25 -0.5 Z M 74.69142816062455 0.5 L 76.38285632124911 0.5 L 76.38285632124911 3.5 L 83.38285632124911 0 L 76.38285632124911 -3.5 L 76.38285632124911 -0.5 L 74.69142816062455 -0.5 Z"/><text text-anchor="middle" pointer-events="none" font-size="8px" fill="#000000" x="50.691428160624554" y="3" font-family="sans-serif">DESTINA…</text></g></g><g class="layer nodes"><g class="node" transform="translate(208.22492042984567,44.357828966274326)"><circle class="outline" cx="0" cy="0" r="25" fill="#4C8EDA" stroke="#2870c2" stroke-width="2px"/><text text-anchor="middle" pointer-events="none" font-family="sans-serif" dy="1.5625" font-size="25" fill="#FFFFFF"/><text text-anchor="middle" pointer-events="none" x="0" y="5" font-size="10px" fill="#FFFFFF" font-family="sans-serif"> MSN</text></g><g class="node" transform="translate(80.14849002036524,220.03207209778006)"><circle class="outline" cx="0" cy="0" r="25" fill="#4C8EDA" stroke="#2870c2" stroke-width="2px"/><text text-anchor="middle" pointer-events="none" font-family="sans-serif" dy="1.5625" font-size="25" fill="#FFFFFF"/><text text-anchor="middle" pointer-events="none" x="0" y="5" font-size="10px" fill="#FFFFFF" font-family="sans-serif"> GRR</text></g><g class="node" transform="translate(115.31184471230732,-11.476114443636956)"><circle class="outline" cx="0" cy="0" r="25" fill="#ECB5C9" stroke="#da7298" stroke-width="2px"/><text text-anchor="middle" pointer-events="none" font-family="sans-serif" dy="1.5625" font-size="25" fill="#2A2C34"/><text text-anchor="middle" pointer-events="none" x="0" y="5" font-size="10px" fill="#2A2C34" font-family="sans-serif"> 11/30/2…</text></g><g class="node" transform="translate(22.752591951490533,43.68885760170151)"><circle class="outline" cx="0" cy="0" r="25" fill="#4C8EDA" stroke="#2870c2" stroke-width="2px"/><text text-anchor="middle" pointer-events="none" font-family="sans-serif" dy="1.5625" font-size="25" fill="#FFFFFF"/><text text-anchor="middle" pointer-events="none" x="0" y="5" font-size="10px" fill="#FFFFFF" font-family="sans-serif"> ORD</text></g><g class="node" transform="translate(-1.433612221271506,148.6793977387369)"><circle class="outline" cx="0" cy="0" r="25" fill="#ECB5C9" stroke="#da7298" stroke-width="2px"/><text text-anchor="middle" pointer-events="none" font-family="sans-serif" dy="1.5625" font-size="25" fill="#2A2C34"/><text text-anchor="middle" pointer-events="none" x="0" y="5" font-size="10px" fill="#2A2C34" font-family="sans-serif"> 11/17/2…</text></g></g></svg>