<svg xmlns="http://www.w3.org/2000/svg" width="413.04351806640625" height="390.697998046875" viewBox="-108.60291290283203 -112.16264343261719 413.04351806640625 390.697998046875"><title>Neo4j Graph Visualization</title><desc>Created using Neo4j (http://www.neo4j.com/)</desc><g class="layer relationships"><g class="relationship" transform="translate(134.1807721008601 -83.16264076521867) rotate(396.0548964073415)"><path class="outline" fill="#A5ABB6" stroke="none" d="M 24.018736134675446,-6.953439040707552 L 24.277555179777966,-5.987513214418485 A 107.33564014294267 107.33564014294267 0 0 1 39.93559925731893,-8.958135277555996 L 39.822659475215055,-9.951737112104581 A 108.33564014294267 108.33564014294267 0 0 0 24.018736134675446,-6.953439040707552 Z M 60.88407555711885,-10.28476404743492 L 60.80260640736877,-9.2880881835559 A 107.33564014294267 107.33564014294267 0 0 1 76.54674318284628,-6.814003105942151 L 75.8622916786714,-3.8931254744018076 L 83.4761995738029,-5.703762534790786 L 77.45934518841281,-10.708506614662607 L 76.77489368423792,-7.787628983122264 A 108.33564014294267 108.33564014294267 0 0 0 60.88407555711885,-10.28476404743492"/><text text-anchor="middle" pointer-events="none" font-size="8px" fill="#000000" x="50.35315946577469" y="-7.131408181791329" font-family="sans-serif">road</text></g><g class="relationship" transform="translate(221.3456738963248 -19.705944626005813) rotate(421.68949309943025)"><path class="outline" fill="#A5ABB6" stroke="none" d="M 21.40063509461097,-12.933012701892217 L 21.90063509461097,-12.06698729810778 A 66.76497702566208 66.76497702566208 0 0 1 44.45337315791994,-20.127612411741893 L 44.29116610068753,-21.114369155110793 A 67.76497702566208 67.76497702566208 0 0 0 21.40063509461097,-12.933012701892217 Z M 62.36323871180744,-21.64091641148228 L 62.2587582646041,-20.6463894705942 A 66.76497702566208 66.76497702566208 0 0 1 85.24254833468754,-13.912514999748419 L 83.89635938674272,-11.231512329770037 L 91.72258605596123,-11.218241232873554 L 87.0374669319473,-17.48718522638626 L 85.69127798400248,-14.806182556407878 A 67.76497702566208 67.76497702566208 0 0 0 62.36323871180744,-21.64091641148228"/><text text-anchor="middle" pointer-events="none" font-size="8px" fill="#000000" x="53.324124985591624" y="-18.48326553391354" font-family="sans-serif">trek</text></g><g class="relationship" transform="translate(275.44061786462373 80.71514808890525) rotate(510.001343953419)"><path class="outline" fill="#A5ABB6" stroke="none" d="M 21.40063509461097,12.933012701892217 L 21.90063509461097,12.06698729810778 A 66.76897092472323 66.76897092472323 0 0 0 42.98898594135276,19.87034265800429 L 42.804826526502964,20.853239046196947 A 67.76897092472323 67.76897092472323 0 0 1 21.40063509461097,12.933012701892217 Z M 63.866175936963685,21.466861969290918 L 63.7395537489195,20.474910951601586 A 66.76897092472323 66.76897092472323 0 0 0 85.24644952956947,13.912569129632876 L 83.90025554645226,11.231568987928478 L 91.72648219073261,11.218283192643442 L 87.04137484039242,17.48723598523874 L 85.6951808572752,14.806235843534344 A 67.76897092472323 67.76897092472323 0 0 1 63.866175936963685,21.466861969290918"/><text text-anchor="middle" pointer-events="none" font-size="8px" fill="#000000" x="53.32606876031132" y="24.483800760458152" transform="rotate(180 53.32606876031132 21.483800760458152)" font-family="sans-serif">road</text></g><g class="relationship" transform="translate(176.65336438119348 137.74690592919632) rotate(485.13790135458436)"><path class="outline" fill="#A5ABB6" stroke="none" d="M 25 0.5 L 48.21377673736002 0.5 L 48.21377673736002 -0.5 L 25 -0.5 Z M 66.21377673736002 0.5 L 89.42755347472004 0.5 L 89.42755347472004 3.5 L 96.42755347472004 0 L 89.42755347472004 -3.5 L 89.42755347472004 -0.5 L 66.21377673736002 -0.5 Z"/><text text-anchor="middle" pointer-events="none" font-size="8px" fill="#000000" x="57.21377673736002" y="3" transform="rotate(180 57.21377673736002 0)" font-family="sans-serif">trek</text></g><g class="relationship" transform="translate(275.44061786462373 80.71514808890525) rotate(510.001343953419)"><path class="outline" fill="#A5ABB6" stroke="none" d="M 25 0.5 L 32.03407501913462 0.5 L 32.03407501913462 -0.5 L 25 -0.5 Z M 75.03407501913462 0.5 L 82.06815003826924 0.5 L 82.06815003826924 3.5 L 89.06815003826924 0 L 82.06815003826924 -3.5 L 82.06815003826924 -0.5 L 75.03407501913462 -0.5 Z"/><text text-anchor="middle" pointer-events="none" font-size="8px" fill="#000000" x="53.53407501913462" y="3" transform="rotate(180 53.53407501913462 0)" font-family="sans-serif">twowheeler</text></g><g class="relationship" transform="translate(275.44061786462373 80.71514808890525) rotate(510.001343953419)"><path class="outline" fill="#A5ABB6" stroke="none" d="M 21.40063509461097,-12.933012701892217 L 21.90063509461097,-12.06698729810778 A 66.76897092472323 66.76897092472323 0 0 1 44.45530752230876,-20.128190804184584 L 44.29310923042743,-21.114948988397302 A 67.76897092472323 67.76897092472323 0 0 0 21.40063509461097,-12.933012701892217 Z M 62.36518082944755,-21.64147923035067 L 62.26070734879902,-20.64695155761291 A 66.76897092472323 66.76897092472323 0 0 1 85.24644952956947,-13.912569129632876 L 83.90025554645226,-11.231568987928478 L 91.72648219073261,-11.218283192643442 L 87.04137484039242,-17.48723598523874 L 85.6951808572752,-14.806235843534344 A 67.76897092472323 67.76897092472323 0 0 0 62.36518082944755,-21.64147923035067"/><text text-anchor="middle" pointer-events="none" font-size="8px" fill="#000000" x="53.32606876031131" y="-18.483800760458152" transform="rotate(180 53.32606876031131 -21.483800760458152)" font-family="sans-serif">trek</text></g><g class="relationship" transform="translate(221.3456738963248 -19.705944626005813) rotate(421.68949309943025)"><path class="outline" fill="#A5ABB6" stroke="none" d="M 25 0.5 L 32.03213748622387 0.5 L 32.03213748622387 -0.5 L 25 -0.5 Z M 75.03213748622386 0.5 L 82.06427497244773 0.5 L 82.06427497244773 3.5 L 89.06427497244773 0 L 82.06427497244773 -3.5 L 82.06427497244773 -0.5 L 75.03213748622386 -0.5 Z"/><text text-anchor="middle" pointer-events="none" font-size="8px" fill="#000000" x="53.53213748622387" y="3" font-family="sans-serif">twowheeler</text></g><g class="relationship" transform="translate(221.3456738963248 -19.705944626005813) rotate(421.68949309943025)"><path class="outline" fill="#A5ABB6" stroke="none" d="M 21.40063509461097,12.933012701892217 L 21.90063509461097,12.06698729810778 A 66.76497702566208 66.76497702566208 0 0 0 42.98705469376997,19.86975038485339 L 42.802885246532,20.852644893284506 A 67.76497702566208 67.76497702566208 0 0 1 21.40063509461097,12.933012701892217 Z M 63.864233134361925,21.466287566399842 L 63.737602684481146,20.474337603365925 A 66.76497702566208 66.76497702566208 0 0 0 85.24254833468754,13.912514999748419 L 83.89635938674272,11.231512329770037 L 91.72258605596123,11.218241232873554 L 87.0374669319473,17.48718522638626 L 85.69127798400248,14.806182556407878 A 67.76497702566208 67.76497702566208 0 0 1 63.864233134361925,21.466287566399842"/><text text-anchor="middle" pointer-events="none" font-size="8px" fill="#000000" x="53.324124985591624" y="24.48326553391354" font-family="sans-serif">road</text></g><g class="relationship" transform="translate(134.1807721008601 -83.16264076521867) rotate(396.0548964073415)"><path class="outline" fill="#A5ABB6" stroke="none" d="M 24.018736134675446,6.953439040707552 L 24.277555179777966,5.987513214418485 A 107.33564014294267 107.33564014294267 0 0 0 41.42021640709268,9.116436448465919 L 41.3211081645203,10.111513106947172 A 108.33564014294267 108.33564014294267 0 0 1 24.018736134675446,6.953439040707552 Z M 59.38132442897291,10.397084525818741 L 59.313726532728715,9.399371879600722 A 107.33564014294267 107.33564014294267 0 0 0 76.54674318284628,6.814003105942151 L 75.8622916786714,3.8931254744018076 L 83.4761995738029,5.703762534790786 L 77.45934518841281,10.708506614662607 L 76.77489368423792,7.787628983122264 A 108.33564014294267 108.33564014294267 0 0 1 59.38132442897291,10.397084525818741"/><text text-anchor="middle" pointer-events="none" font-size="8px" fill="#000000" x="50.35315946577473" y="13.131408181791329" font-family="sans-serif">trek</text></g><g class="relationship" transform="translate(134.1807721008601 -83.16264076521867) rotate(459.1660491537316)"><path class="outline" fill="#A5ABB6" stroke="none" d="M 21.40063509461097,12.933012701892217 L 21.90063509461097,12.06698729810778 A 64.48916522791306 64.48916522791306 0 0 0 23.721688227708565,13.079505443246617 L 23.249926353084536,13.961231440170394 A 65.48916522791306 65.48916522791306 0 0 1 21.40063509461097,12.933012701892217 Z M 81.56134229038709,15.691985826761993 L 81.14270625362579,14.783831727104456 A 64.48916522791306 64.48916522791306 0 0 0 83.02060626283694,13.881103050698982 L 81.67733929145251,11.198635186289845 L 89.50357577502233,11.193891428203521 L 84.8116288913495,17.457726869911166 L 83.46836191996508,14.77525900550203 A 65.48916522791306 65.48916522791306 0 0 1 81.56134229038709,15.691985826761993"/><text text-anchor="middle" pointer-events="none" font-size="8px" fill="#000000" x="52.21710864909795" y="24.178289147588785" transform="rotate(180 52.21710864909795 21.178289147588785)" font-family="sans-serif">PublicTransport</text></g><g class="relationship" transform="translate(116.36229830909522 27.266506771611652) rotate(528.5405809554206)"><path class="outline" fill="#A5ABB6" stroke="none" d="M 24.018736134675446,-6.953439040707552 L 24.277555179777966,-5.987513214418485 A 138.87930345721483 138.87930345721483 0 0 1 36.980229647329864,-8.761090225927347 L 36.81287617089983,-9.746987185009175 A 139.87930345721483 139.87930345721483 0 0 0 24.018736134675446,-6.953439040707552 Z M 79.79204855200729,-10.343978159925825 L 79.65214304645181,-9.353813300159914 A 138.87930345721483 138.87930345721483 0 0 1 92.42695321521592,-6.934124638491499 L 91.73128175384385,-4.015898941628343 L 99.35209175145863,-5.797262178100539 L 93.35451516371201,-10.825092234309041 L 92.65884370233994,-7.906866537445885 A 139.87930345721483 139.87930345721483 0 0 0 79.79204855200729,-10.343978159925825"/><text text-anchor="middle" pointer-events="none" font-size="8px" fill="#000000" x="58.286338792018874" y="-8.206266837134166" transform="rotate(180 58.286338792018874 -11.206266837134166)" font-family="sans-serif">twowheeler</text></g><g class="relationship" transform="translate(-4.843049014146313 51.836626564791416) rotate(435.4491153828322)"><path class="outline" fill="#A5ABB6" stroke="none" d="M 24.018736134675446,-6.953439040707552 L 24.277555179777966,-5.987513214418485 A 112.67402644299041 112.67402644299041 0 0 1 42.75472519880324,-9.319006991110086 L 42.659893991912696,-10.31450035733593 A 113.67402644299041 113.67402644299041 0 0 0 24.018736134675446,-6.953439040707552 Z M 60.71821216052531,-10.593530326226286 L 60.65418281911225,-9.59558230982553 A 112.67402644299041 112.67402644299041 0 0 1 79.2254612858689,-6.836546462598877 L 78.53890406443224,-3.9161630662460665 L 86.15411541426491,-5.721310178638811 L 80.14087091445111,-10.730390991069292 L 79.45431369301446,-7.810007594716481 A 113.67402644299041 113.67402644299041 0 0 0 60.71821216052531,-10.593530326226286"/><text text-anchor="middle" pointer-events="none" font-size="8px" fill="#000000" x="51.69122766725408" y="-7.313279717739832" font-family="sans-serif">trek</text></g><g class="relationship" transform="translate(22.916589497215096 158.7832712936508) rotate(403.02642651182526)"><path class="outline" fill="#A5ABB6" stroke="none" d="M 24.018736134675446,6.953439040707552 L 24.277555179777966,5.987513214418485 A 121.06029338197587 121.06029338197587 0 0 0 44.855851691883984,9.633911396598407 L 44.76701651132717,10.629957736230978 A 122.06029338197587 122.06029338197587 0 0 1 24.018736134675446,6.953439040707552 Z M 62.82253764449868,10.899277738609982 L 62.763449854915905,9.90102494841993 A 121.06029338197587 121.06029338197587 0 0 0 83.44134804062374,6.870012961532401 L 82.75166484515822,3.9503662209330423 L 90.3688043012665,5.747359962212731 L 84.36092563457777,10.762875282331546 L 83.67124243911225,7.843228541732188 A 122.06029338197587 122.06029338197587 0 0 1 62.82253764449868,10.899277738609982"/><text text-anchor="middle" pointer-events="none" font-size="8px" fill="#000000" x="53.79724714289874" y="13.599021754360308" font-family="sans-serif">trek</text></g><g class="relationship" transform="translate(22.916589497215096 158.7832712936508) rotate(403.02642651182526)"><path class="outline" fill="#A5ABB6" stroke="none" d="M 24.018736134675446,-6.953439040707552 L 24.277555179777966,-5.987513214418485 A 121.06029338197587 121.06029338197587 0 0 1 32.535132251798245,-7.8930373120135044 L 32.34452365655781,-8.874703428073573 A 122.06029338197587 122.06029338197587 0 0 0 24.018736134675446,-6.953439040707552 Z M 75.2918557301341,-9.515314988987072 L 75.1306109020899,-8.52840055225559 A 121.06029338197587 121.06029338197587 0 0 1 83.44134804062374,-6.870012961532401 L 82.75166484515822,-3.9503662209330423 L 90.3688043012665,-5.747359962212731 L 84.36092563457777,-10.762875282331546 L 83.67124243911225,-7.843228541732188 A 122.06029338197587 122.06029338197587 0 0 0 75.2918557301341,-9.515314988987072"/><text text-anchor="middle" pointer-events="none" font-size="8px" fill="#000000" x="53.7972471428987" y="-7.599021754360308" font-family="sans-serif">twowheeler</text></g><g class="relationship" transform="translate(-4.843049014146313 51.836626564791416) rotate(435.4491153828322)"><path class="outline" fill="#A5ABB6" stroke="none" d="M 24.018736134675446,6.953439040707552 L 24.277555179777966,5.987513214418485 A 112.67402644299041 112.67402644299041 0 0 0 30.456314328590853,7.457785576614015 L 30.252332758848627,8.436760305197708 A 113.67402644299041 113.67402644299041 0 0 1 24.018736134675446,6.953439040707552 Z M 73.17786448432994,9.100028593535924 L 73.00422653034562,8.115219037867348 A 112.67402644299041 112.67402644299041 0 0 0 79.2254612858689,6.836546462598877 L 78.53890406443224,3.9161630662460665 L 86.15411541426491,5.721310178638811 L 80.14087091445111,10.730390991069292 L 79.45431369301446,7.810007594716481 A 113.67402644299041 113.67402644299041 0 0 1 73.17786448432994,9.100028593535924"/><text text-anchor="middle" pointer-events="none" font-size="8px" fill="#000000" x="51.6912276672541" y="13.313279717739832" font-family="sans-serif">twowheeler</text></g><g class="relationship" transform="translate(116.36229830909522 27.266506771611652) rotate(421.3779385523645)"><path class="outline" fill="#A5ABB6" stroke="none" d="M 25 0.5 L 50.43038067207553 0.5 L 50.43038067207553 -0.5 L 25 -0.5 Z M 68.43038067207553 0.5 L 93.86076134415106 0.5 L 93.86076134415106 3.5 L 100.86076134415106 0 L 93.86076134415106 -3.5 L 93.86076134415106 -0.5 L 68.43038067207553 -0.5 Z"/><text text-anchor="middle" pointer-events="none" font-size="8px" fill="#000000" x="59.43038067207553" y="3" font-family="sans-serif">trek</text></g><g class="relationship" transform="translate(116.36229830909522 27.266506771611652) rotate(528.5405809554206)"><path class="outline" fill="#A5ABB6" stroke="none" d="M 24.018736134675446,6.953439040707552 L 24.277555179777966,5.987513214418485 A 138.87930345721483 138.87930345721483 0 0 0 49.33668408085137,10.292446827585422 L 49.258303216797145,11.289370315196237 A 139.87930345721483 139.87930345721483 0 0 1 24.018736134675446,6.953439040707552 Z M 67.30858311466896,11.540093016373362 L 67.25792215872734,10.541377107046259 A 138.87930345721483 138.87930345721483 0 0 0 92.42695321521592,6.934124638491499 L 91.73128175384385,4.015898941628343 L 99.35209175145863,5.797262178100539 L 93.35451516371201,10.825092234309041 L 92.65884370233994,7.906866537445885 A 139.87930345721483 139.87930345721483 0 0 1 67.30858311466896,11.540093016373362"/><text text-anchor="middle" pointer-events="none" font-size="8px" fill="#000000" x="58.28633879201893" y="14.206266837134166" transform="rotate(180 58.28633879201893 11.206266837134166)" font-family="sans-serif">trek</text></g><g class="relationship" transform="translate(134.1807721008601 -83.16264076521867) rotate(459.1660491537316)"><path class="outline" fill="#A5ABB6" stroke="none" d="M 25 0.5 L 43.428737322549246 0.5 L 43.428737322549246 -0.5 L 25 -0.5 Z M 61.428737322549246 0.5 L 79.85747464509849 0.5 L 79.85747464509849 3.5 L 86.85747464509849 0 L 79.85747464509849 -3.5 L 79.85747464509849 -0.5 L 61.428737322549246 -0.5 Z"/><text text-anchor="middle" pointer-events="none" font-size="8px" fill="#000000" x="52.428737322549246" y="3" transform="rotate(180 52.428737322549246 0)" font-family="sans-serif">trek</text></g><g class="relationship" transform="translate(134.1807721008601 -83.16264076521867) rotate(459.1660491537316)"><path class="outline" fill="#A5ABB6" stroke="none" d="M 21.40063509461097,-12.933012701892217 L 21.90063509461097,-12.06698729810778 A 64.48916522791306 64.48916522791306 0 0 1 41.887479532099334,-19.53123987336808 L 41.697405150873465,-20.51300956611766 A 65.48916522791306 65.48916522791306 0 0 0 21.40063509461097,-12.933012701892217 Z M 62.75775113261697,-21.138106480763525 L 62.62624031866665,-20.14679174476182 A 64.48916522791306 64.48916522791306 0 0 1 83.02060626283694,-13.881103050698982 L 81.67733929145251,-11.198635186289845 L 89.50357577502233,-11.193891428203521 L 84.8116288913495,-17.457726869911166 L 83.46836191996508,-14.77525900550203 A 65.48916522791306 65.48916522791306 0 0 0 62.75775113261697,-21.138106480763525"/><text text-anchor="middle" pointer-events="none" font-size="8px" fill="#000000" x="52.21710864909796" y="-18.178289147588785" transform="rotate(180 52.21710864909796 -21.178289147588785)" font-family="sans-serif">road</text></g><g class="relationship" transform="translate(116.36229830909522 27.266506771611652) rotate(335.8949441118557)"><path class="outline" fill="#A5ABB6" stroke="none" d="M 25 0.5 L 45.00634821476418 0.5 L 45.00634821476418 -0.5 L 25 -0.5 Z M 63.00634821476418 0.5 L 83.01269642952836 0.5 L 83.01269642952836 3.5 L 90.01269642952836 0 L 83.01269642952836 -3.5 L 83.01269642952836 -0.5 L 63.00634821476418 -0.5 Z"/><text text-anchor="middle" pointer-events="none" font-size="8px" fill="#000000" x="54.00634821476418" y="3" font-family="sans-serif">trek</text></g><g class="relationship" transform="translate(-4.843049014146313 51.836626564791416) rotate(489.012387168629)"><path class="outline" fill="#A5ABB6" stroke="none" d="M 24.018736134675446,-6.953439040707552 L 24.277555179777966,-5.987513214418485 A 129.1407108521054 129.1407108521054 0 0 1 34.546649347328795,-8.29506988722028 L 34.36734894588088,-9.278864259048362 A 130.1407108521054 130.1407108521054 0 0 0 24.018736134675446,-6.953439040707552 Z M 77.33111752944438,-9.898974014925727 L 77.18028473658089,-8.91041472555709 A 129.1407108521054 129.1407108521054 0 0 1 87.51169879301601,-6.900191749190224 L 86.81919676286749,-3.9812123148261898 L 94.43806781155683,-5.77085025123768 L 88.43503483321403,-10.79216432834227 L 87.74253280306552,-7.873184893978236 A 130.1407108521054 130.1407108521054 0 0 0 77.33111752944438,-9.898974014925727"/><text text-anchor="middle" pointer-events="none" font-size="8px" fill="#000000" x="55.830679844961196" y="-7.874374917853999" transform="rotate(180 55.830679844961196 -10.874374917853999)" font-family="sans-serif">twowheeler</text></g><g class="relationship" transform="translate(-79.60291382139381 144.11657120469454) rotate(368.14163479461604)"><path class="outline" fill="#A5ABB6" stroke="none" d="M 21.40063509461097,12.933012701892217 L 21.90063509461097,12.06698729810778 A 55.90933139924689 55.90933139924689 0 0 0 39.215953308874845,18.535767881733356 L 39.02565685532965,19.51749455437097 A 56.90933139924689 56.90933139924689 0 0 1 21.40063509461097,12.933012701892217 Z M 57.09905027667159,20.094521613701765 L 56.971764481805735,19.102655530792703 A 55.90933139924689 55.90933139924689 0 0 0 74.66445409588879,13.751571405119916 L 73.33323696196388,11.063103264645724 L 81.15941594598272,11.093476116040843 L 76.43941027445533,17.336195592418843 L 75.10819314053042,14.647727451944649 A 56.90933139924689 56.90933139924689 0 0 1 57.09905027667159,20.094521613701765"/><text text-anchor="middle" pointer-events="none" font-size="8px" fill="#000000" x="48.05524403943035" y="23.028689618058408" font-family="sans-serif">trek</text></g><g class="relationship" transform="translate(-79.60291382139381 144.11657120469454) rotate(368.14163479461604)"><path class="outline" fill="#A5ABB6" stroke="none" d="M 25 0.5 L 26.781658558300485 0.5 L 26.781658558300485 -0.5 L 25 -0.5 Z M 69.78165855830048 0.5 L 71.56331711660097 0.5 L 71.56331711660097 3.5 L 78.56331711660097 0 L 71.56331711660097 -3.5 L 71.56331711660097 -0.5 L 69.78165855830048 -0.5 Z"/><text text-anchor="middle" pointer-events="none" font-size="8px" fill="#000000" x="48.281658558300485" y="3" font-family="sans-serif">twowheeler</text></g><g class="relationship" transform="translate(-79.60291382139381 144.11657120469454) rotate(368.14163479461604)"><path class="outline" fill="#A5ABB6" stroke="none" d="M 21.40063509461097,-12.933012701892217 L 21.90063509461097,-12.06698729810778 A 55.90933139924689 55.90933139924689 0 0 1 37.760349334332005,-18.23348227453984 L 37.5440177997348,-19.20980223599655 A 56.90933139924689 56.90933139924689 0 0 0 21.40063509461097,-12.933012701892217 Z M 58.597299167365435,-19.88196781960424 L 58.443686426568995,-18.893836691734563 A 55.90933139924689 55.90933139924689 0 0 1 74.66445409588879,-13.751571405119916 L 73.33323696196388,-11.063103264645724 L 81.15941594598272,-11.093476116040843 L 76.43941027445533,-17.336195592418843 L 75.10819314053042,-14.647727451944649 A 56.90933139924689 56.90933139924689 0 0 0 58.597299167365435,-19.88196781960424"/><text text-anchor="middle" pointer-events="none" font-size="8px" fill="#000000" x="48.05524403943034" y="-17.028689618058408" font-family="sans-serif">road</text></g><g class="relationship" transform="translate(-4.843049014146313 51.836626564791416) rotate(489.012387168629)"><path class="outline" fill="#A5ABB6" stroke="none" d="M 24.018736134675446,6.953439040707552 L 24.277555179777966,5.987513214418485 A 129.1407108521054 129.1407108521054 0 0 0 46.88522897373897,9.934105873126867 L 46.80147225905719,10.930592106220786 A 130.1407108521054 130.1407108521054 0 0 1 24.018736134675446,6.953439040707552 Z M 64.85450380983475,11.191157260462916 L 64.79954119962139,10.192668847170836 A 129.1407108521054 129.1407108521054 0 0 0 87.51169879301601,6.900191749190224 L 86.81919676286749,3.9812123148261898 L 94.43806781155683,5.77085025123768 L 88.43503483321403,10.79216432834227 L 87.74253280306552,7.873184893978236 A 130.1407108521054 130.1407108521054 0 0 1 64.85450380983475,11.191157260462916"/><text text-anchor="middle" pointer-events="none" font-size="8px" fill="#000000" x="55.83067984496122" y="13.874374917853999" transform="rotate(180 55.83067984496122 10.874374917853999)" font-family="sans-serif">trek</text></g><g class="relationship" transform="translate(-79.60291382139381 144.11657120469454) rotate(417.96454067547177)"><path class="outline" fill="#A5ABB6" stroke="none" d="M 25 0.5 L 49.6778356062549 0.5 L 49.6778356062549 -0.5 L 25 -0.5 Z M 67.6778356062549 0.5 L 92.3556712125098 0.5 L 92.3556712125098 3.5 L 99.3556712125098 0 L 92.3556712125098 -3.5 L 92.3556712125098 -0.5 L 67.6778356062549 -0.5 Z"/><text text-anchor="middle" pointer-events="none" font-size="8px" fill="#000000" x="58.6778356062549" y="3" font-family="sans-serif">trek</text></g><g class="relationship" transform="translate(-13.63919361517759 249.53535785712126) rotate(354.0783157861306)"><path class="outline" fill="#A5ABB6" stroke="none" d="M 25 0.5 L 48.02566174891361 0.5 L 48.02566174891361 -0.5 L 25 -0.5 Z M 66.02566174891362 0.5 L 89.05132349782723 0.5 L 89.05132349782723 3.5 L 96.05132349782723 0 L 89.05132349782723 -3.5 L 89.05132349782723 -0.5 L 66.02566174891362 -0.5 Z"/><text text-anchor="middle" pointer-events="none" font-size="8px" fill="#000000" x="57.02566174891361" y="3" font-family="sans-serif">trek</text></g></g><g class="layer nodes"><g class="node" transform="translate(134.1807721008601,-83.16264076521867)"><circle class="outline" cx="0" cy="0" r="25" fill="#F16667" stroke="#eb2728" stroke-width="2px"/><text text-anchor="middle" pointer-events="none" font-family="sans-serif" dy="1.5625" font-size="25" fill="#FFFFFF"/><text text-anchor="middle" pointer-events="none" x="0" y="5" font-size="10px" fill="#FFFFFF" font-family="sans-serif"> Darjeeli…</text></g><g class="node" transform="translate(106.76618100600125,237.0466156102334)"><circle class="outline" cx="0" cy="0" r="25" fill="#D9C8AE" stroke="#c0a378" stroke-width="2px"/><text text-anchor="middle" pointer-events="none" font-family="sans-serif" dy="1.5625" font-size="25" fill="#2A2C34"/><text text-anchor="middle" pointer-events="none" x="0" y="5" font-size="10px" fill="#2A2C34" font-family="sans-serif"> Sandak…</text></g><g class="node" transform="translate(221.3456738963248,-19.705944626005813)"><circle class="outline" cx="0" cy="0" r="25" fill="#8DCC93" stroke="#5db665" stroke-width="2px"/><text text-anchor="middle" pointer-events="none" font-family="sans-serif" dy="1.5625" font-size="25" fill="#2A2C34"/><text text-anchor="middle" pointer-events="none" x="0" y="5" font-size="10px" fill="#2A2C34" font-family="sans-serif"> Tumbli…</text></g><g class="node" transform="translate(275.44061786462373,80.71514808890525)"><circle class="outline" cx="0" cy="0" r="25" fill="#8DCC93" stroke="#5db665" stroke-width="2px"/><text text-anchor="middle" pointer-events="none" font-family="sans-serif" dy="1.5625" font-size="25" fill="#2A2C34"/><text text-anchor="middle" pointer-events="none" x="0" y="5" font-size="10px" fill="#2A2C34" font-family="sans-serif"> Gairibus</text></g><g class="node" transform="translate(176.65336438119348,137.74690592919632)"><circle class="outline" cx="0" cy="0" r="25" fill="#8DCC93" stroke="#5db665" stroke-width="2px"/><text text-anchor="middle" pointer-events="none" font-family="sans-serif" dy="1.5625" font-size="25" fill="#2A2C34"/><text text-anchor="middle" pointer-events="none" x="0" y="5" font-size="10px" fill="#2A2C34" font-family="sans-serif"> BhikeB…</text></g><g class="node" transform="translate(116.36229830909522,27.266506771611652)"><circle class="outline" cx="0" cy="0" r="25" fill="#F16667" stroke="#eb2728" stroke-width="2px"/><text text-anchor="middle" pointer-events="none" font-family="sans-serif" dy="1.5625" font-size="25" fill="#FFFFFF"/><text text-anchor="middle" pointer-events="none" x="0" y="5" font-size="10px" fill="#FFFFFF" font-family="sans-serif"> Rimbik</text></g><g class="node" transform="translate(-4.843049014146313,51.836626564791416)"><circle class="outline" cx="0" cy="0" r="25" fill="#8DCC93" stroke="#5db665" stroke-width="2px"/><text text-anchor="middle" pointer-events="none" font-family="sans-serif" dy="1.5625" font-size="25" fill="#2A2C34"/><text text-anchor="middle" pointer-events="none" x="0" y="5" font-size="10px" fill="#2A2C34" font-family="sans-serif"> Sirikhola</text></g><g class="node" transform="translate(22.916589497215096,158.7832712936508)"><circle class="outline" cx="0" cy="0" r="25" fill="#8DCC93" stroke="#5db665" stroke-width="2px"/><text text-anchor="middle" pointer-events="none" font-family="sans-serif" dy="1.5625" font-size="25" fill="#2A2C34"/><text text-anchor="middle" pointer-events="none" x="0" y="5" font-size="10px" fill="#2A2C34" font-family="sans-serif"> Gurdum</text></g><g class="node" transform="translate(-79.60291382139381,144.11657120469454)"><circle class="outline" cx="0" cy="0" r="25" fill="#8DCC93" stroke="#5db665" stroke-width="2px"/><text text-anchor="middle" pointer-events="none" font-family="sans-serif" dy="1.5625" font-size="25" fill="#2A2C34"/><text text-anchor="middle" pointer-events="none" x="0" y="5" font-size="10px" fill="#2A2C34" font-family="sans-serif"> Ramm…</text></g><g class="node" transform="translate(-13.63919361517759,249.53535785712126)"><circle class="outline" cx="0" cy="0" r="25" fill="#D9C8AE" stroke="#c0a378" stroke-width="2px"/><text text-anchor="middle" pointer-events="none" font-family="sans-serif" dy="1.5625" font-size="25" fill="#2A2C34"/><text text-anchor="middle" pointer-events="none" x="0" y="5" font-size="10px" fill="#2A2C34" font-family="sans-serif"> Sabargr…</text></g></g></svg>